<?xml version="1.0" encoding="UTF-8" standalone="no"?>
<!-- Generator: Adobe Illustrator 14.0.0, SVG Export Plug-In . SVG Version: 6.00 Build 43363)  -->

<svg
   xmlns:dc="http://purl.org/dc/elements/1.1/"
   xmlns:cc="http://creativecommons.org/ns#"
   xmlns:rdf="http://www.w3.org/1999/02/22-rdf-syntax-ns#"
   xmlns:svg="http://www.w3.org/2000/svg"
   xmlns="http://www.w3.org/2000/svg"
   xmlns:sodipodi="http://sodipodi.sourceforge.net/DTD/sodipodi-0.dtd"
   xmlns:inkscape="http://www.inkscape.org/namespaces/inkscape"
   version="1.1"
   id="Layer_1"
   x="0px"
   y="0px"
   width="1000px"
   height="1000px"
   viewBox="0 0 1000 1000"
   enable-background="new 0 0 1000 1000"
   xml:space="preserve"
   inkscape:version="0.48.4 r9939"
   sodipodi:docname="sprite.svg"><metadata
     id="metadata237"><rdf:RDF><cc:Work
         rdf:about=""><dc:format>image/svg+xml</dc:format><dc:type
           rdf:resource="http://purl.org/dc/dcmitype/StillImage" /></cc:Work></rdf:RDF></metadata><defs
     id="defs235" /><sodipodi:namedview
     pagecolor="#ffffff"
     bordercolor="#666666"
     borderopacity="1"
     objecttolerance="10"
     gridtolerance="10"
     guidetolerance="10"
     inkscape:pageopacity="0"
     inkscape:pageshadow="2"
     inkscape:window-width="1366"
     inkscape:window-height="744"
     id="namedview233"
     showgrid="false"
     inkscape:zoom="0.472"
     inkscape:cx="410.13257"
     inkscape:cy="594.85131"
     inkscape:window-x="0"
     inkscape:window-y="24"
     inkscape:window-maximized="1"
     inkscape:current-layer="Layer_1" /><rect
     x="4.222"
     display="none"
     width="999.811"
     height="998.292"
     id="rect3" /><polygon
     fill="#FFFFFF"
     points="12.899,997.705 21,989.604 18.6,987.205 10.5,995.306 2.399,987.205 0,989.604 8.101,997.705   10.5,1000.105 "
     id="polygon39" /><rect
     y="869.815"
     fill="#FFFFFF"
     width="16"
     height="3.153"
     id="rect41" /><rect
     y="875.45"
     fill="#FFFFFF"
     width="16"
     height="3.153"
     id="rect43" /><rect
     y="881.082"
     fill="#FFFFFF"
     width="16"
     height="3.154"
     id="rect45" /><path
     fill="#FFFFFF"
     d="M14,566.261H9.95c0,0-6.334-0.667-6.334,5.938c0,1.417,0,2.735,0,2.735H1.039L1,580.135h2.618v13.831h6.006  v-13.831h3.469l0.844-5.197H9.625v-2.111c0,0-0.37-1.785,1.766-1.785h2.571L14,566.261z"
     id="path79" /><path
     fill="#FFFFFF"
     d="M124.157,566.606c-8.459,0-12.724,6.064-12.724,11.126c0,3.06,1.158,5.783,3.646,6.801  c0.408,0.169,0.772,0.007,0.891-0.446c0.082-0.322,0.278-1.106,0.363-1.427c0.12-0.455,0.074-0.607-0.255-0.994  c-0.717-0.846-1.176-1.942-1.176-3.492c0-4.5,3.367-8.525,8.768-8.525c4.781,0,7.409,2.923,7.409,6.818  c0,5.137-2.271,9.469-5.645,9.469c-1.863,0-3.257-1.539-2.812-3.433c0.535-2.253,1.572-4.688,1.572-6.322  c0-1.459-0.784-2.674-2.401-2.674c-1.904,0-3.434,1.964-3.434,4.606c0,1.68,0.569,2.821,0.569,2.821s-1.949,8.248-2.291,9.698  c-0.678,2.889-0.102,6.405-0.053,6.764c0.029,0.211,0.3,0.261,0.424,0.105c0.177-0.232,2.444-3.037,3.214-5.824  c0.218-0.794,1.251-4.892,1.251-4.892c0.619,1.179,2.427,2.22,4.351,2.22c5.724,0,9.608-5.22,9.608-12.201  C135.431,571.526,130.957,566.606,124.157,566.606"
     id="path85" /><path
     fill="#4CCED1"
     d="M984.186,7.343c-0.248-0.249-0.244-0.657,0.002-0.905l1.604-1.601c0.249-0.249,0.653-0.249,0.903,0  l2.601,2.592c0.249,0.249,0.656,0.249,0.905-0.001l7.115-7.136c0.246-0.249,0.652-0.25,0.902-0.002l1.594,1.58  c0.25,0.248,0.25,0.655,0.004,0.904l-8.637,8.653c-0.25,0.25-0.736,0.453-1.093,0.453h-0.745c-0.353,0-0.844-0.204-1.092-0.453  L984.186,7.343z"
     id="path93" /><polygon
     fill="#FFFFFF"
     points="2.79,387.896 0,390.687 9.417,400.105 0,409.523 2.79,412.314 12.209,402.896 15,400.105   12.209,397.314 "
     id="polygon95" /><polygon
     fill="#FFFFFF"
     points="135,390.686 132.21,387.896 122.791,397.314 120,400.105 122.791,402.895 132.21,412.314   135,409.522 125.583,400.105 "
     id="polygon97" /><polygon
     fill="#1FC8D3"
     points="11.551,626.104 3.449,618.002 1.05,620.403 9.15,628.502 1.05,636.604 3.449,639.002   11.551,630.902 13.949,628.502 "
     id="polygon135" /><path
     fill="#FFFFFF"
     d="M31.936,796.922h-4.033v-0.519h4.033v-4.032h0.563v4.032h4.033v0.521h-4.033v4.06h-0.563V796.922z"
     id="path141" /><polygon
     fill="#FFFFFF"
     points="32.999,801.481 31.436,801.481 31.436,797.422 27.403,797.422 27.403,795.904 31.436,795.904   31.436,791.871 32.999,791.871 32.999,795.904 37.032,795.904 37.032,797.423 32.999,797.423 "
     id="polygon143" /><rect
     x="204.462"
     y="743.287"
     display="none"
     fill="#FFFFFF"
     width="36.853"
     height="26.172"
     id="rect201" /><rect
     x="219.817"
     y="738.662"
     display="none"
     fill="#FFFFFF"
     width="21.498"
     height="1.541"
     id="rect203" /><ellipse
     display="none"
     fill="#FFFFFF"
     cx="206.76"
     cy="739.41"
     rx="1.552"
     ry="1.539"
     id="ellipse205" /><ellipse
     display="none"
     fill="#FFFFFF"
     cx="211.37"
     cy="739.41"
     rx="1.552"
     ry="1.539"
     id="ellipse207" /><ellipse
     display="none"
     fill="#FFFFFF"
     cx="216.073"
     cy="739.41"
     rx="1.552"
     ry="1.539"
     id="ellipse209" /></svg>