<?xml version="1.0" encoding="utf-8"?>
<!-- Generator: Adobe Illustrator 14.0.0, SVG Export Plug-In . SVG Version: 6.00 Build 43363)  -->
<!DOCTYPE svg PUBLIC "-//W3C//DTD SVG 1.1//EN" "http://www.w3.org/Graphics/SVG/1.1/DTD/svg11.dtd">
<svg version="1.1" id="Layer_1" xmlns="http://www.w3.org/2000/svg" xmlns:xlink="http://www.w3.org/1999/xlink" x="0px" y="0px"
	 width="1000px" height="1000px" viewBox="0 0 1000 1000" enable-background="new 0 0 1000 1000" xml:space="preserve">
<rect x="4.222" display="none" width="999.811" height="998.292"/>
<polygon fill="#FFFFFF" points="154.69,56.599 43.649,151.182 15.686,115.388 123.896,18.105 "/>
<g>
	<g>
		<g>
			<defs>
				<rect id="SVGID_1_" y="0.105" width="222" height="191.132"/>
			</defs>
			<clipPath id="SVGID_2_">
				<use xlink:href="#SVGID_1_"  overflow="visible"/>
			</clipPath>
			<g clip-path="url(#SVGID_2_)">
				<path fill="#363636" d="M120.711,0.104L0,108.979l64.216,82.258h89.73L222,129.855L120.711,0.104z M82.706,112.981
					c-0.726,0.762-1.389,1.414-1.98,1.949c-0.63,0.568-1.355,1.167-2.183,1.806c-0.824,0.645-1.794,1.3-2.914,1.963l-13.093-16.767
					c-1.646-2.11-3.159-3.323-4.538-3.636c-1.386-0.317-2.834,0.21-4.355,1.58c-0.519,0.469-0.98,0.987-1.386,1.556
					c-0.406,0.569-0.669,0.979-0.793,1.226c1.421,1.09,2.831,2.538,4.226,4.323l13.604,17.429c-0.802,1.074-1.571,1.985-2.305,2.744
					c-0.729,0.764-1.388,1.416-1.979,1.949c-0.629,0.57-1.359,1.172-2.185,1.809c-0.822,0.643-1.793,1.298-2.914,1.966
					L46.82,116.107c-1.646-2.111-3.141-3.34-4.481-3.685c-1.35-0.352-2.782,0.161-4.299,1.528c-0.409,0.368-0.813,0.797-1.213,1.296
					c-0.396,0.503-0.623,0.839-0.67,1.02l17.424,22.319c-0.806,1.074-1.575,1.987-2.307,2.743c-0.727,0.768-1.387,1.417-1.979,1.952
					c-0.63,0.565-1.358,1.168-2.186,1.807c-0.821,0.643-1.793,1.298-2.914,1.964L21.319,117.75c0.923-1.65,2.112-3.517,3.562-5.619
					c1.46-2.089,3.582-4.388,6.358-6.893c1.515-1.369,3.117-2.593,4.797-3.672c1.683-1.074,3.463-1.786,5.345-2.123
					c0.561-1.386,1.333-2.86,2.321-4.429c0.981-1.568,2.291-3.083,3.92-4.552c1.444-1.304,3.048-2.5,4.818-3.585
					c1.769-1.087,3.649-1.713,5.63-1.881c1.988-0.161,4.075,0.291,6.271,1.369c2.196,1.071,4.443,3.082,6.742,6.028l13.929,17.841
					C84.208,111.308,83.439,112.221,82.706,112.981 M112.711,84.14c-0.683,1.024-1.431,2.088-2.242,3.19
					c-0.811,1.103-1.688,2.184-2.627,3.242c-0.943,1.054-1.918,2.028-2.918,2.928c-1.889,1.706-3.825,3.177-5.811,4.437
					c-1.99,1.251-4.024,1.979-6.097,2.189c-2.078,0.211-4.228-0.259-6.448-1.407c-2.221-1.15-4.544-3.277-6.966-6.381L65.997,74.909
					c0.653-0.935,1.353-1.797,2.084-2.601c0.733-0.798,1.475-1.526,2.216-2.194c0.703-0.636,1.488-1.284,2.364-1.938
					c0.883-0.651,1.784-1.232,2.719-1.734l12.955,16.595c1.861,2.387,3.506,3.688,4.931,3.893c1.425,0.21,2.894-0.372,4.411-1.741
					c0.63-0.568,1.095-1.025,1.396-1.365c0.304-0.339,0.517-0.592,0.63-0.771L82.046,60.433c0.655-0.938,1.354-1.799,2.086-2.6
					c0.732-0.798,1.473-1.525,2.215-2.195c0.704-0.634,1.491-1.282,2.366-1.939c0.881-0.649,1.782-1.231,2.717-1.732l22.969,29.424
					C113.958,82.202,113.396,83.116,112.711,84.14 M141.006,53.432c-0.268,2.688-1.206,5.407-2.796,8.176
					c-1.604,2.757-3.958,5.54-7.068,8.345c-1.814,1.639-3.485,3.032-5.02,4.174c-1.537,1.15-3.17,2.305-4.916,3.463L97.259,46.914
					c1.397-1.603,2.896-3.283,4.5-5.027c1.602-1.746,3.158-3.306,4.677-4.675c2.999-2.705,5.858-4.638,8.58-5.801
					c2.717-1.168,5.292-1.681,7.735-1.542c2.443,0.135,4.74,0.896,6.893,2.277c2.151,1.387,4.159,3.268,6.023,5.655
					c1.958,2.511,3.405,5.073,4.341,7.678C140.942,48.096,141.277,50.749,141.006,53.432"/>
			</g>
		</g>
	</g>
</g>
<g>
	<g>
		<g>
			<defs>
				<rect id="SVGID_3_" y="0.105" width="222" height="191.132"/>
			</defs>
			<clipPath id="SVGID_4_">
				<use xlink:href="#SVGID_3_"  overflow="visible"/>
			</clipPath>
			<g clip-path="url(#SVGID_4_)">
				<path fill="#363636" d="M120.312,42.138c-1.914-0.271-3.797,0.428-5.65,2.096c-0.444,0.402-0.834,0.791-1.173,1.162
					c-0.344,0.372-0.588,0.665-0.745,0.868l11.792,15.107c0.15-0.135,0.361-0.288,0.632-0.466c0.27-0.183,0.648-0.483,1.13-0.919
					c2.072-1.872,3.129-3.892,3.167-6.066c0.044-2.167-1.054-4.688-3.295-7.554C124.183,43.817,122.23,42.409,120.312,42.138"/>
			</g>
		</g>
	</g>
</g>
<polygon fill="#FFFFFF" points="12.899,997.705 21,989.604 18.6,987.205 10.5,995.306 2.399,987.205 0,989.604 8.101,997.705 
	10.5,1000.105 "/>
<rect y="869.815" fill="#FFFFFF" width="16" height="3.153"/>
<rect y="875.45" fill="#FFFFFF" width="16" height="3.153"/>
<rect y="881.082" fill="#FFFFFF" width="16" height="3.154"/>
<g>
	<g>
		<g>
			<defs>
				<rect id="SVGID_5_" x="274.499" width="95.243" height="82"/>
			</defs>
			<clipPath id="SVGID_6_">
				<use xlink:href="#SVGID_5_"  overflow="visible"/>
			</clipPath>
			<g clip-path="url(#SVGID_6_)">
				<path fill="#FFFFFF" d="M326.286,0.104l-51.787,46.709l27.55,35.291h38.495l29.197-26.334L326.286,0.104z M309.98,48.531
					c-0.312,0.327-0.598,0.605-0.852,0.836c-0.27,0.243-0.582,0.5-0.938,0.774c-0.355,0.276-0.773,0.558-1.25,0.842l-5.619-7.193
					c-0.706-0.905-1.356-1.426-1.943-1.56c-0.598-0.135-1.216,0.09-1.867,0.678c-0.223,0.202-0.42,0.423-0.595,0.667
					c-0.174,0.245-0.287,0.42-0.341,0.525c0.609,0.469,1.215,1.089,1.812,1.855l5.835,7.477c-0.347,0.46-0.678,0.851-0.984,1.177
					c-0.313,0.327-0.6,0.605-0.854,0.835c-0.271,0.245-0.583,0.502-0.938,0.776c-0.354,0.276-0.771,0.556-1.25,0.843l-5.616-7.194
					c-0.706-0.907-1.347-1.434-1.923-1.581c-0.579-0.15-1.193,0.069-1.843,0.655c-0.176,0.158-0.35,0.342-0.522,0.556
					c-0.169,0.215-0.267,0.36-0.288,0.438l7.475,9.575c-0.346,0.46-0.676,0.854-0.988,1.177c-0.313,0.329-0.596,0.606-0.851,0.837
					c-0.271,0.242-0.583,0.501-0.938,0.775c-0.354,0.276-0.771,0.558-1.25,0.843l-9.814-12.572c0.396-0.708,0.906-1.508,1.527-2.41
					c0.627-0.896,1.536-1.882,2.728-2.957c0.648-0.587,1.337-1.112,2.058-1.575c0.722-0.46,1.486-0.766,2.293-0.911
					c0.241-0.594,0.571-1.227,0.996-1.901c0.421-0.673,0.981-1.322,1.682-1.953c0.62-0.561,1.307-1.073,2.067-1.539
					c0.759-0.466,1.562-0.734,2.414-0.807c0.854-0.07,1.749,0.125,2.689,0.586c0.941,0.459,1.904,1.322,2.896,2.586l5.976,7.655
					C310.625,47.812,310.296,48.205,309.98,48.531 M319.586,40.039c-2.787,2.768-5.183,2.977-5.183,2.977
					c-0.739,0.076-1.499-0.051-2.28-0.377c-0.161-0.067-0.323-0.143-0.486-0.227c-0.953-0.493-1.951-1.406-2.985-2.738l-5.835-7.477
					c0.275-0.401,0.578-0.771,0.896-1.116c0.313-0.343,0.634-0.654,0.951-0.94c0.302-0.272,0.638-0.551,1.014-0.831
					c0.379-0.28,0.771-0.528,1.167-0.744l5.56,7.119c0.8,1.024,1.504,1.582,2.114,1.67c0.606,0.09,1.238-0.159,1.894-0.747
					c0.271-0.245,0.473-0.44,0.603-0.585c0.131-0.146,0.226-0.253,0.271-0.331l-7.579-9.705c0.28-0.402,0.582-0.772,0.896-1.115
					c0.312-0.343,0.635-0.655,0.949-0.941c0.305-0.272,0.644-0.551,1.019-0.833c0.379-0.277,0.766-0.527,1.166-0.743l9.854,12.624
					c-0.188,0.348-0.727,1.18-0.727,1.18S320.477,39.154,319.586,40.039z M334.993,22.982c-0.114,1.153-0.521,2.32-1.199,3.508
					c-0.688,1.183-1.698,2.377-3.028,3.581c-0.775,0.703-1.494,1.3-2.151,1.79c-0.655,0.494-1.357,0.989-2.109,1.486l-10.276-13.161
					c0.602-0.687,1.24-1.408,1.933-2.156c0.688-0.749,1.354-1.418,2.007-2.006c1.287-1.161,2.513-1.99,3.68-2.488
					c1.166-0.501,2.272-0.721,3.32-0.662c1.047,0.058,2.029,0.385,2.955,0.978c0.924,0.596,1.783,1.402,2.583,2.426
					c0.842,1.077,1.461,2.177,1.862,3.294C334.964,20.694,335.109,21.832,334.993,22.982"/>
			</g>
		</g>
	</g>
</g>
<g>
	<g>
		<g>
			<defs>
				<rect id="SVGID_7_" x="274.499" width="95.243" height="82"/>
			</defs>
			<clipPath id="SVGID_8_">
				<use xlink:href="#SVGID_7_"  overflow="visible"/>
			</clipPath>
			<g clip-path="url(#SVGID_8_)">
				<path fill="#FFFFFF" d="M326.114,18.033c-0.816-0.116-1.629,0.184-2.422,0.899c-0.188,0.173-0.355,0.339-0.505,0.499
					c-0.146,0.16-0.255,0.286-0.315,0.373l5.059,6.481c0.062-0.058,0.151-0.123,0.271-0.2c0.114-0.079,0.276-0.208,0.48-0.394
					c0.893-0.803,1.345-1.67,1.358-2.604c0.021-0.929-0.453-2.011-1.414-3.24C327.774,18.753,326.938,18.149,326.114,18.033"/>
			</g>
		</g>
	</g>
</g>
<path fill="#FFFFFF" d="M14,566.261H9.95c0,0-6.334-0.667-6.334,5.938c0,1.417,0,2.735,0,2.735H1.039L1,580.135h2.618v13.831h6.006
	v-13.831h3.469l0.844-5.197H9.625v-2.111c0,0-0.37-1.785,1.766-1.785h2.571L14,566.261z"/>
<path fill="#FFFFFF" d="M26.014,585.605c0,0,7.154,6.235,12.84,0.053c0,0-0.952-0.004-1.56-0.469
	c-0.557-0.422-0.776-1.336-0.776-1.336s1.767-0.989,1.105-1.737c0,0-3.914-0.08-4.133-2.447l2.299-1.479
	c0,0-0.901,0.438-1.797-0.013c0,0-2.321-1.667-1.877-3.369l1.938-0.19c0,0-3.362-2.399-2.422-4.234c0,0,0.326-1.582,11.447,5.817
	c0,0,1.962-6.994,5.585-8.542c0,0,0.602,0.291,0.602,0.606c0,0,0.515-1.113,1.19-1.208c0,0,0.819,0.724,0.286,1.136
	c0,0,1.38-0.953,2.052-0.472c0,0-0.055,0.839-2.036,1.895c0,0,5.142,0.281,6.935,7.155c0,0,2.23,0.806,4.322-0.541
	c0,0,0.175,1.017-3.075,2.449c0,0,0.303,0.487,3.026,0.111c0,0-0.021,2.033-4.332,2.015c0,0-3.64,10.562-12.484,12.02
	C34.395,594.576,26.843,589.191,26.014,585.605z"/>
<path fill="#FFFFFF" d="M85.821,569.396c0.196,0.116,0.419,0.303,0.668,0.535c0.238,0.25,0.471,0.56,0.699,0.911
	c0.218,0.339,0.41,0.739,0.577,1.208c0.14,0.469,0.209,1.001,0.209,1.611c-0.019,1.139-0.267,2.044-0.747,2.713
	c-0.235,0.328-0.483,0.63-0.747,0.908c-0.292,0.278-0.602,0.561-0.93,0.854c-0.187,0.188-0.36,0.407-0.521,0.658
	c-0.187,0.262-0.282,0.56-0.282,0.896c0,0.334,0.097,0.601,0.289,0.812c0.164,0.203,0.325,0.392,0.478,0.553l1.071,0.871
	c0.665,0.55,1.247,1.15,1.745,1.811c0.475,0.668,0.718,1.537,0.738,2.621c0,1.527-0.676,2.887-2.025,4.064
	c-1.4,1.229-3.417,1.855-6.055,1.896c-2.209-0.028-3.858-0.489-4.947-1.421c-1.1-0.854-1.649-1.895-1.649-3.083
	c0-0.585,0.178-1.235,0.537-1.958c0.346-0.713,0.975-1.353,1.884-1.896c1.021-0.581,2.095-0.975,3.221-1.164
	c1.112-0.169,2.039-0.26,2.774-0.271c-0.227-0.301-0.43-0.63-0.607-0.958c-0.208-0.336-0.312-0.729-0.312-1.197
	c0-0.275,0.039-0.508,0.117-0.705c0.07-0.188,0.134-0.376,0.193-0.543c-0.358,0.036-0.697,0.062-1.013,0.062
	c-1.677-0.024-2.957-0.558-3.837-1.597c-0.922-0.968-1.381-2.093-1.381-3.376c0-1.553,0.652-3.077,1.958-4.341
	c0.897-0.742,1.828-1.334,2.794-1.561c0.957-0.188,1.854-0.432,2.691-0.432h6.307l-1.948,1.506L85.821,569.396L85.821,569.396z
	 M82.644,578.322c0.831-0.031,1.521-0.33,2.074-0.896c0.264-0.399,0.438-0.812,0.514-1.231c0.046-0.418,0.069-0.778,0.069-1.067
	c0-1.246-0.319-2.502-0.954-3.769c-0.298-0.606-0.691-1.099-1.176-1.481c-0.498-0.355-1.069-0.552-1.716-0.564
	c-0.854,0.024-1.566,0.364-2.13,1.032c-0.478,0.705-0.706,1.479-0.686,2.345c0,1.147,0.335,2.337,1.002,3.565
	c0.325,0.576,0.741,1.067,1.25,1.468C81.401,578.119,81.985,578.322,82.644,578.322L82.644,578.322z M87.039,587.583
	c0-0.801-0.26-1.501-0.783-2.1c-0.552-0.562-1.415-1.258-2.59-2.086c-0.2-0.025-0.436-0.033-0.706-0.033
	c-0.16-0.025-0.572,0-1.235,0.06c-0.653,0.095-1.32,0.244-2.002,0.449c-0.163,0.054-0.388,0.153-0.679,0.267
	c-0.291,0.138-0.586,0.332-0.888,0.567c-0.291,0.261-0.539,0.574-0.738,0.957c-0.232,0.404-0.346,0.885-0.346,1.446
	c0,1.109,0.5,2.024,1.506,2.743c0.954,0.713,2.26,1.081,3.917,1.109c1.485-0.028,2.62-0.348,3.402-0.994
	C86.658,589.376,87.039,588.572,87.039,587.583L87.039,587.583z"/>
<path fill="#FFFFFF" d="M124.157,566.606c-8.459,0-12.724,6.064-12.724,11.126c0,3.06,1.158,5.783,3.646,6.801
	c0.408,0.169,0.772,0.007,0.891-0.446c0.082-0.322,0.278-1.106,0.363-1.427c0.12-0.455,0.074-0.607-0.255-0.994
	c-0.717-0.846-1.176-1.942-1.176-3.492c0-4.5,3.367-8.525,8.768-8.525c4.781,0,7.409,2.923,7.409,6.818
	c0,5.137-2.271,9.469-5.645,9.469c-1.863,0-3.257-1.539-2.812-3.433c0.535-2.253,1.572-4.688,1.572-6.322
	c0-1.459-0.784-2.674-2.401-2.674c-1.904,0-3.434,1.964-3.434,4.606c0,1.68,0.569,2.821,0.569,2.821s-1.949,8.248-2.291,9.698
	c-0.678,2.889-0.102,6.405-0.053,6.764c0.029,0.211,0.3,0.261,0.424,0.105c0.177-0.232,2.444-3.037,3.214-5.824
	c0.218-0.794,1.251-4.892,1.251-4.892c0.619,1.179,2.427,2.22,4.351,2.22c5.724,0,9.608-5.22,9.608-12.201
	C135.431,571.526,130.957,566.606,124.157,566.606"/>
<path fill="#FFFFFF" d="M95.105,578.971v-4.441h-4.41v-1.856h4.41v-4.411h1.879v4.411h4.41v1.856h-4.41v4.441H95.105z"/>
<polygon fill="#5ADAE2" points="853.996,372.597 680,529.535 772.564,648.105 901.904,648.105 1000,559.625 "/>
<polygon fill="#363636" points="824.796,669.556 616,857.879 727.077,1000.164 882.285,1000.164 1000,893.99 "/>
<path fill="#4CCED1" d="M984.186,7.343c-0.248-0.249-0.244-0.657,0.002-0.905l1.604-1.601c0.249-0.249,0.653-0.249,0.903,0
	l2.601,2.592c0.249,0.249,0.656,0.249,0.905-0.001l7.115-7.136c0.246-0.249,0.652-0.25,0.902-0.002l1.594,1.58
	c0.25,0.248,0.25,0.655,0.004,0.904l-8.637,8.653c-0.25,0.25-0.736,0.453-1.093,0.453h-0.745c-0.353,0-0.844-0.204-1.092-0.453
	L984.186,7.343z"/>
<polygon fill="#FFFFFF" points="2.79,387.896 0,390.687 9.417,400.105 0,409.523 2.79,412.314 12.209,402.896 15,400.105 
	12.209,397.314 "/>
<polygon fill="#FFFFFF" points="135,390.686 132.21,387.896 122.791,397.314 120,400.105 122.791,402.895 132.21,412.314 
	135,409.522 125.583,400.105 "/>
<path fill="#1FC8D3" d="M150,677.114c-11.316,0-20.491,6.831-20.491,15.258c0,5.062,3.313,9.553,8.414,12.328
	c-0.014,0.043-4.062,7.414-4.062,7.414s12.364-4.718,12.397-4.736c1.214,0.166,2.463,0.254,3.742,0.254
	c11.317,0,20.491-6.827,20.491-15.26C170.491,683.945,161.317,677.114,150,677.114z M140.163,694.002
	c-0.9,0-1.631-0.729-1.631-1.635c0-0.898,0.729-1.634,1.631-1.634c0.901,0,1.63,0.729,1.63,1.634
	C141.793,693.271,141.063,694.002,140.163,694.002z M146.652,694.069c-0.899,0-1.631-0.729-1.631-1.632
	c0-0.901,0.731-1.631,1.631-1.631s1.631,0.729,1.631,1.631C148.283,693.338,147.553,694.069,146.652,694.069z M153.243,694.069
	c-0.9,0-1.631-0.729-1.631-1.632c0-0.901,0.729-1.631,1.631-1.631c0.901,0,1.631,0.729,1.631,1.631
	C154.875,693.338,154.144,694.069,153.243,694.069z M159.766,694.069c-0.9,0-1.631-0.729-1.631-1.632
	c0-0.901,0.731-1.631,1.631-1.631c0.901,0,1.631,0.729,1.631,1.631C161.397,693.338,160.667,694.069,159.766,694.069z"/>
<path fill="#1FC8D3" d="M152.073,899.942H135.22v2.025h16.854L152.073,899.942L152.073,899.942z M152.073,893.666H135.22v1.896
	h16.854L152.073,893.666L152.073,893.666z M152.073,906.153H135.22v2.025h16.854L152.073,906.153L152.073,906.153z M141.606,868.494
	v6.312h-6.385v6.312H129v39.622h29.426v-6.341h6.221v-6.146H171v-39.756h-29.394V868.494z M156.385,918.707h-25.344v-35.692h25.344
	V918.707z M162.606,912.496h-4.18v-31.384h-21.164v-4.281h25.344V912.496z M168.959,906.219h-4.312v-31.417h-21v-4.28h25.312
	V906.219z M152.073,912.463H135.22v2.022h16.854L152.073,912.463L152.073,912.463z M152.105,887.323h-16.852v2.094h16.852V887.323z"
	/>
<path fill="#1FC8D3" d="M157.204,813.604l11.296-5.062v-32.914l-11.296,5.063V813.604z M144.402,808.539l11.21,4.562v-32.919
	l-11.21-4.559V808.539z M131.5,780.689v32.912l11.312-4.558V776.13L131.5,780.689z"/>
<path fill="#1FC8D3" d="M145.163,978.168c0-2.655,2.166-4.812,4.836-4.812c2.672,0,4.836,2.149,4.836,4.812
	c0,2.648-2.164,4.807-4.836,4.807C147.329,982.974,145.163,980.823,145.163,978.168z M141.778,978.77
	c0,2.011,2.453,6.248,2.453,6.248l5.768,9.611l5.438-9.611c0,0,2.785-4.271,2.785-6.248c0-4.514-3.682-8.171-8.223-8.171
	C145.46,970.599,141.778,974.256,141.778,978.77z"/>
<path fill="#444444" d="M587.998,62.139h-35.995c-2.209,0-4-1.783-4-3.984V10.063c0-2.199,1.791-3.983,4-3.983h9.998v4.15h-7.998
	c-1.104,0-2,0.892-2,1.991v43.943c0,1.101,0.896,1.991,2,1.991h31.995c1.104,0,2-0.891,2-1.991V12.221c0-1.1-0.896-1.991-2-1.991
	h-7.999V6.08h9.999c2.209,0,3.999,1.784,3.999,3.983v48.092C591.997,60.356,590.207,62.139,587.998,62.139z M562.001,22.18h21.998
	v1.992h-21.998V22.18z M562.001,28.155h21.998v1.992h-21.998V28.155z M562.001,34.13h21.998v1.991h-21.998V34.13z M562.001,40.106
	h21.998v1.991h-21.998V40.106z M583.999,54.047h-21.998v-1.992h21.998V54.047z M562.001,46.081h21.998v1.992h-21.998V46.081z
	 M556.002,22.138h2v1.991h-2V22.138z M556.002,28.114h2v1.991h-2V28.114z M556.002,34.088h2v1.992h-2V34.088z M556.002,40.063h2
	v1.992h-2V40.063z M558.002,54.005h-2v-1.991h2V54.005z M556.002,46.039h2v1.991h-2V46.039z M581.999,12.346
	c1.104,0,2,0.893,2,1.991c0,1.101,0,3.858,0,3.858h-27.997c0,0,0-2.758,0-3.858c0-1.1,0.896-1.991,2-1.991h5.999
	c0,0,0.024-2.833,0.024-6.07c0-3.36,2.601-6.171,5.976-6.171c3.373,0,6.065,2.954,6.065,6.19c0,3.486-0.067,6.051-0.067,6.051
	H581.999z M570.001,6.08c-1.104,0-2,0.892-2,1.992c0,1.1,0.896,1.991,2,1.991S572,9.172,572,8.072
	C572,6.972,571.104,6.08,570.001,6.08z"/>
<polygon fill="#444444" points="543.074,157.177 548.951,155.035 545.216,151.3 "/>
<polygon fill="#444444" points="550.941,112.755 552.253,114.069 546.871,119.451 551.062,123.645 556.469,118.237 557.698,119.466 
	552.289,124.874 556.431,129.014 568.73,116.715 553.755,101.829 541.5,114.084 545.555,118.137 "/>
<path fill="#444444" d="M596.494,115.853c1.499-1.5,1.51-3.921,0.021-5.407l-6.729-6.73c-1.487-1.487-3.908-1.477-5.407,0.022
	l-4.157,4.158l12.113,12.115L596.494,115.853z"/>
<polygon fill="#444444" points="583.607,131.587 571.308,143.886 575.448,148.025 580.855,142.617 582.084,143.846 576.676,149.255 
	580.87,153.449 586.252,148.067 587.564,149.38 582.181,154.762 586.236,158.815 598.492,146.56 "/>
<path fill="#444444" d="M578.913,109.128l-28.533,28.534l12.209,12.21l28.534-28.534L578.913,109.128z M555.923,137.638
	l22.968-22.966l1.338,1.338l-22.968,22.967L555.923,137.638z M558.6,140.313l22.971-22.966l1.338,1.338l-22.971,22.967
	L558.6,140.313z M561.275,142.989l22.966-22.966l1.338,1.338l-22.966,22.967L561.275,142.989z"/>
<polygon fill="#444444" points="545.843,149.381 550.87,154.409 560.999,150.811 549.439,139.25 "/>
<path fill="#444444" d="M574.5,262.249h-9v4.752l-8.998,1.521v3.041h26.809v-2.852L574.5,267V262.249L574.5,262.249z
	 M604.496,198.572h-68.992c-3.312,0-5.998,2.724-5.998,6.083v42.578c0,3.359,2.688,6.082,5.998,6.082h68.992
	c3.312,0,5.998-2.723,5.998-6.082v-42.578C610.494,201.296,607.809,198.572,604.496,198.572z M569.625,248.753
	c-1.656,0-3-1.361-3-3.041c0-1.68,1.344-3.041,3-3.041s3,1.361,3,3.041C572.625,247.392,571.281,248.753,569.625,248.753z
	 M604.496,238.108h-68.992v-33.453h68.992V238.108z"/>
<path fill="#444444" d="M549.164,337.164H547v50.978h43.854v-2.133l-41.646-0.111L549.164,337.164z M553.578,381.493h10.963V357.39
	l-10.963,11.082V381.493z M566.734,381.493h10.963v-21.887l-4.385,4.433l-6.578-6.648V381.493L566.734,381.493z M579.891,381.493
	h10.967v-33.662l-10.967,11.083V381.493z M565.366,350.61l7.938,7.979l15.675-15.764l4.021,4.087l-0.097-9.749l-9.686,0.052
	l3.768,3.816l-13.688,13.874l-8.091-8.208l-12.329,12.423l2.062,2.021L565.366,350.61z"/>
<path fill="#F0EFED" d="M476.248,62.139h-35.995c-2.209,0-4-1.783-4-3.984V10.063c0-2.199,1.791-3.983,4-3.983h9.998v4.15h-7.998
	c-1.104,0-2,0.892-2,1.991v43.943c0,1.101,0.896,1.991,2,1.991h31.995c1.104,0,2-0.891,2-1.991V12.221c0-1.1-0.896-1.991-2-1.991
	h-7.999V6.08h9.999c2.209,0,3.999,1.784,3.999,3.983v48.092C480.247,60.356,478.457,62.139,476.248,62.139z M450.251,22.18h21.998
	v1.992h-21.998V22.18z M450.251,28.155h21.998v1.992h-21.998V28.155z M450.251,34.13h21.998v1.991h-21.998V34.13z M450.251,40.106
	h21.998v1.991h-21.998V40.106z M472.249,54.047h-21.998v-1.992h21.998V54.047z M450.251,46.081h21.998v1.992h-21.998V46.081z
	 M444.252,22.138h2v1.991h-2V22.138z M444.252,28.114h2v1.991h-2V28.114z M444.252,34.088h2v1.992h-2V34.088z M444.252,40.063h2
	v1.992h-2V40.063z M446.252,54.005h-2v-1.991h2V54.005z M444.252,46.039h2v1.991h-2V46.039z M470.249,12.346
	c1.104,0,2,0.893,2,1.991c0,1.101,0,3.858,0,3.858h-27.997c0,0,0-2.758,0-3.858c0-1.1,0.896-1.991,2-1.991h5.999
	c0,0,0.024-2.833,0.024-6.07c0-3.36,2.601-6.171,5.976-6.171c3.373,0,6.065,2.954,6.065,6.19c0,3.486-0.067,6.051-0.067,6.051
	H470.249z M458.251,6.08c-1.104,0-2,0.892-2,1.992c0,1.1,0.896,1.991,2,1.991s1.999-0.891,1.999-1.991
	C460.25,6.972,459.354,6.08,458.251,6.08z"/>
<path fill="#F0EFED" d="M439.191,112.755l1.312,1.314l-5.382,5.382l4.191,4.194l5.404-5.408l1.229,1.229l-5.409,5.408l4.142,4.14
	l12.303-12.299l-14.979-14.886l-12.255,12.255l4.055,4.053L439.191,112.755z M471.857,131.587l-12.303,12.299l4.144,4.139
	l5.407-5.408l1.229,1.229l-5.408,5.409l4.194,4.194l5.382-5.382l1.312,1.312l-5.387,5.382l4.059,4.053l12.256-12.255
	L471.857,131.587z M484.744,115.853c1.499-1.5,1.51-3.921,0.021-5.407l-6.729-6.73c-1.487-1.487-3.908-1.477-5.407,0.022
	l-4.157,4.158l12.113,12.115L484.744,115.853z M434.093,149.381l5.027,5.028l10.129-3.598l-11.56-11.561L434.093,149.381z
	 M467.163,109.128l-28.533,28.534l12.209,12.21l28.534-28.534L467.163,109.128z M444.173,137.638l22.968-22.966l1.338,1.338
	l-22.967,22.967L444.173,137.638z M446.85,140.313l22.971-22.966l1.341,1.338l-22.974,22.967L446.85,140.313z M449.525,142.989
	l22.966-22.966l1.338,1.338l-22.966,22.967L449.525,142.989z M431.324,157.177l5.877-2.142l-3.735-3.735L431.324,157.177z"/>
<path fill="#F0EFED" d="M462.75,262.249h-9v4.752l-8.998,1.521v3.041h26.809v-2.852L462.75,267V262.249z M492.746,198.572h-68.992
	c-3.312,0-5.998,2.724-5.998,6.083v42.578c0,3.359,2.688,6.082,5.998,6.082h68.992c3.312,0,5.998-2.723,5.998-6.082v-42.578
	C498.744,201.296,496.059,198.572,492.746,198.572z M457.875,248.753c-1.656,0-3-1.361-3-3.041c0-1.68,1.344-3.041,3-3.041
	s3,1.361,3,3.041C460.875,247.392,459.531,248.753,457.875,248.753z M492.746,238.108h-68.992v-33.453h68.992V238.108z"/>
<path fill="#F0EFED" d="M437.407,337.156h-2.165v50.994h43.869v-2.134l-41.668-0.111L437.407,337.156z M441.822,381.498h10.967
	v-24.11l-10.967,11.086V381.498z M454.982,381.498h10.968v-21.895l-4.386,4.435l-6.582-6.65V381.498z M468.145,381.498h10.973
	v-33.673l-10.973,11.086V381.498z M453.614,350.606l7.938,7.98l15.684-15.77l4.021,4.089l-0.096-9.752l-9.688,0.051l3.77,3.818
	l-13.689,13.879l-8.094-8.211l-12.333,12.427l2.062,2.021L453.614,350.606z"/>
<path fill="#5ADAE2" d="M940.756,252.272h42.012v12.043l17.232-17.58l-17.232-15.957v11.501h-42.012V252.272z"/>
<polygon fill="#1FC8D3" points="11.551,626.104 3.449,618.002 1.05,620.403 9.15,628.502 1.05,636.604 3.449,639.002 
	11.551,630.902 13.949,628.502 "/>
<path fill="#1FC8D3" d="M43.737,681.059H21.6c-2.095-0.046-3.097,0.956-3.097,3.099v14.028c0,2.096,1.002,3.052,3.097,3.052h3.417
	l-2.277,8.882l11.022-8.882h9.975c2.095,0,3.052-0.956,3.052-2.96v-14.12C46.789,682.015,45.832,681.059,43.737,681.059z
	 M40.959,695.498H24.334v-3.008h16.625V695.498z M40.959,689.803H24.334v-3.006h16.625V689.803z"/>
<path fill="#1FC8D3" d="M43.737,786.545c2.095,0,3.052,0.957,3.052,3.1v14.12c0,2.004-0.957,2.96-3.052,2.96h-9.975l-11.022,8.883
	l2.277-8.883h-3.416c-2.095,0-3.097-0.956-3.097-3.053v-14.027c0-2.143,1.002-3.145,3.097-3.1H43.737L43.737,786.545z"/>
<path fill="#FFFFFF" d="M31.936,796.922h-4.033v-0.519h4.033v-4.032h0.563v4.032h4.033v0.521h-4.033v4.06h-0.563V796.922z"/>
<polygon fill="#FFFFFF" points="32.999,801.481 31.436,801.481 31.436,797.422 27.403,797.422 27.403,795.904 31.436,795.904 
	31.436,791.871 32.999,791.871 32.999,795.904 37.032,795.904 37.032,797.423 32.999,797.423 "/>
<g>
	<g>
		<path fill="#1FC8D3" d="M241.5,724.998h-37.093c-1.666,0-3.016,1.352-3.016,3.018v31.024c0,1.666,1.35,3.018,3.016,3.018H241.5
			c1.666,0,3.016-1.352,3.016-3.018v-31.024C244.516,726.349,243.166,724.998,241.5,724.998z M216.189,727.24
			c0.892,0,1.616,0.724,1.616,1.615c0,0.894-0.724,1.615-1.616,1.615c-0.893,0-1.615-0.724-1.615-1.615
			C214.574,727.963,215.297,727.24,216.189,727.24z M211.451,727.24c0.892,0,1.615,0.724,1.615,1.615
			c0,0.894-0.723,1.615-1.615,1.615c-0.893,0-1.616-0.724-1.616-1.615C209.835,727.963,210.558,727.24,211.451,727.24z
			 M206.798,727.24c0.893,0,1.616,0.724,1.616,1.615c0,0.894-0.723,1.615-1.616,1.615c-0.892,0-1.616-0.724-1.616-1.615
			C205.182,727.963,205.906,727.24,206.798,727.24z M241.457,758.954H204.45v-26.243h37.007V758.954z M241.457,729.652h-21.584
			v-1.552h21.584V729.652z"/>
	</g>
</g>
<rect x="210.701" y="833.845" fill="#FFFFFF" width="24.589" height="4.863"/>
<ellipse fill="#1FC8D3" cx="204.613" cy="837.065" rx="3.136" ry="3.01"/>
<ellipse fill="#1FC8D3" cx="241.373" cy="837.096" rx="3.136" ry="3.01"/>
<rect x="235.298" y="834.085" fill="#1FC8D3" width="6.074" height="6.021"/>
<rect x="204.642" y="834.056" fill="#1FC8D3" width="6.074" height="6.021"/>
<ellipse fill="#1FC8D3" cx="203.965" cy="858.364" rx="2.489" ry="2.961"/>
<ellipse fill="#1FC8D3" cx="241.965" cy="858.364" rx="2.489" ry="2.961"/>
<rect x="203.965" y="855.403" fill="#1FC8D3" width="38" height="5.921"/>
<rect x="201.476" y="838.708" fill="#1FC8D3" width="43.033" height="19.655"/>
<rect x="201.476" y="836.887" fill="#1FC8D3" width="2.243" height="1.821"/>
<rect x="241.062" y="837.065" fill="#1FC8D3" width="3.447" height="1.644"/>
<rect x="212.238" y="833.949" fill="#1FC8D3" width="21.508" height="3.069"/>
<ellipse fill="#1FC8D3" cx="223.023" cy="828.051" rx="4.633" ry="4.727"/>
<rect x="218.391" y="828.051" fill="#1FC8D3" width="9.266" height="5.057"/>
<ellipse fill="#FFFFFF" cx="222.992" cy="829.41" rx="1.539" ry="1.523"/>
<ellipse fill="#1FC8D3" cx="213.852" cy="834.035" rx="1.617" ry="1.508"/>
<ellipse fill="#1FC8D3" cx="232.133" cy="834.035" rx="1.617" ry="1.508"/>
<rect x="213.562" y="832.528" fill="#1FC8D3" width="18.844" height="3.016"/>
<ellipse fill="#FFFFFF" cx="213.773" cy="847.301" rx="3.367" ry="4.383"/>
<rect x="224.536" y="844.733" fill="#FFFFFF" width="13.836" height="1.521"/>
<rect x="224.536" y="847.78" fill="#FFFFFF" width="13.836" height="1.521"/>
<rect x="224.536" y="850.825" fill="#FFFFFF" width="13.836" height="1.522"/>
<rect x="224.536" y="853.856" fill="#FFFFFF" width="13.836" height="1.521"/>
<path fill="#FFFFFF" d="M207.113,856.832c0,0,0.324-2.508,1.059-3.32c0.497-0.55,3.348-1.027,3.348-1.027s0.933,1.027,1.568,1.373
	c0.458,0.247,0.635,0.266,0.635,0.266v2.711L207.113,856.832L207.113,856.832z"/>
<path fill="#FFFFFF" d="M220.363,856.832c0,0-0.324-2.508-1.059-3.32c-0.497-0.55-3.348-1.027-3.348-1.027s-0.933,1.027-1.568,1.373
	c-0.458,0.247-0.635,0.266-0.635,0.266v2.711L220.363,856.832L220.363,856.832z"/>
<rect x="204.462" y="743.287" display="none" fill="#FFFFFF" width="36.853" height="26.172"/>
<rect x="219.817" y="738.662" display="none" fill="#FFFFFF" width="21.498" height="1.541"/>
<ellipse display="none" fill="#FFFFFF" cx="206.76" cy="739.41" rx="1.552" ry="1.539"/>
<ellipse display="none" fill="#FFFFFF" cx="211.37" cy="739.41" rx="1.552" ry="1.539"/>
<ellipse display="none" fill="#FFFFFF" cx="216.073" cy="739.41" rx="1.552" ry="1.539"/>
<g>
	<g>
		<path fill="#FFFFFF" d="M7.311,523.215H5.033c0,0-3.562-0.375-3.562,3.34c0,0.802,0,1.5,0,1.539H0.022L0,531.018h1.472v7.778H4.85
			v-7.778h1.951l0.475-2.924H4.85v-1.188c0,0-0.208-1.004,0.993-1.004h1.446L7.311,523.215z"/>
	</g>
	<g>
		<path fill="#FFFFFF" d="M33.61,534.182c0,0,4.1,3.602,7.4,0.03c0,0-0.55-0.002-0.901-0.271c-0.322-0.243-0.449-0.771-0.449-0.771
			s1.021-0.572,0.639-1.005c0,0-2.262-0.046-2.389-1.414l1.329-0.856c0,0-0.521,0.255-1.039-0.006c0,0-1.341-0.964-1.085-1.946
			l1.12-0.111c0,0-1.943-1.387-1.4-2.447c0,0,0.188-0.914,6.6,3.4c0,0,1.134-4.042,3.228-4.938c0,0,0.3,0.2,0.3,0.353
			c0,0,0.297-0.646,0.688-0.698c0,0,0.5,0.4,0.2,0.7c0,0,0.797-0.551,1.186-0.271c0,0-0.032,0.484-1.177,1.095c0,0,3,0.198,4,4.136
			c0,0,1.3,0.5,2.498-0.312c0,0,0.1,0.587-1.777,1.416c0,0,0.2,0.302,1.7,0.064c0,0-0.012,1.175-2.503,1.164
			c0,0-2.104,6.104-7.215,6.899c-6.11,1.011-10.465-2.091-10.965-4.209L33.61,534.182L33.61,534.182z"/>
	</g>
	<g>
		<path fill="#FFFFFF" d="M86.729,524.992c0.11,0.1,0.201,0.2,0.4,0.302c0.133,0.1,0.301,0.3,0.4,0.5c0.121,0.2,0.199,0.4,0.3,0.677
			c0.078,0.302,0.101,0.602,0.101,0.905c-0.012,0.638-0.15,1.146-0.42,1.5c-0.132,0.185-0.271,0.354-0.419,0.51
			c-0.163,0.156-0.338,0.314-0.522,0.479c-0.104,0.104-0.201,0.229-0.291,0.398c-0.105,0.146-0.158,0.312-0.158,0.503
			c0,0.199,0.1,0.301,0.199,0.456c0.093,0.102,0.201,0.2,0.301,0.311l0.602,0.5c0.373,0.3,0.699,0.6,1,1.015
			c0.267,0.4,0.399,0.9,0.399,1.472c0,0.856-0.379,1.618-1.136,2.301c-0.785,0.688-1.918,1.041-3.397,1.062
			c-1.239-0.015-2.164-0.272-2.774-0.796c-0.617-0.479-0.926-1.062-0.926-1.729c0-0.328,0.101-0.693,0.301-1.101
			c0.194-0.397,0.547-0.757,1.058-1.062c0.573-0.326,1.175-0.547,1.808-0.653c0.623-0.095,1.144-0.146,1.555-0.153
			c-0.127-0.168-0.24-0.352-0.34-0.536c-0.117-0.188-0.176-0.408-0.176-0.673c0-0.152,0.022-0.283,0.066-0.395
			c0.039-0.107,0.074-0.211,0.107-0.305c-0.201,0.021-0.391,0.032-0.567,0c-0.941-0.016-1.659-0.312-2.153-0.896
			c-0.517-0.543-0.775-1.174-0.775-1.894c0-0.871,0.367-1.728,1.1-2.437c0.503-0.416,1.025-0.748,1.566-0.875
			c0.537-0.104,1.041-0.241,1.511-0.241h3.538l-1.094,0.846L86.729,524.992L86.729,524.992z M84.946,530
			c0.466-0.018,0.854-0.186,1.163-0.503c0.148-0.226,0.246-0.456,0.289-0.692c0.025-0.233,0.039-0.437,0.039-0.599
			c0-0.699-0.18-1.403-0.535-2.114c-0.168-0.34-0.389-0.615-0.66-0.831c-0.279-0.2-0.6-0.31-0.963-0.316
			c-0.479,0.015-0.879,0.205-1.195,0.58c-0.268,0.396-0.396,0.829-0.385,1.313c0,0.6,0.199,1.3,0.6,2c0.184,0.3,0.4,0.6,0.7,0.823
			c0.25,0.239,0.599,0.339,0.899,0.339H84.946z M87.412,535.2c0-0.449-0.146-0.842-0.439-1.177c-0.31-0.315-0.793-0.706-1.453-1.17
			c-0.111-0.017-0.244-0.021-0.396-0.021c-0.09-0.015-0.321,0-0.692,0.033c-0.367,0.053-0.74,0.137-1.123,0.252
			c-0.092,0.03-0.218,0.086-0.381,0.1c-0.164,0.076-0.33,0.188-0.498,0.318c-0.164,0.146-0.303,0.322-0.414,0.537
			c-0.131,0.227-0.194,0.496-0.194,0.8c0,0.6,0.3,1.1,0.8,1.539c0.535,0.4,1.3,0.6,2.2,0.623c0.833-0.019,1.47-0.196,1.909-0.559
			c0.468-0.277,0.668-0.679,0.668-1.282h0.014L87.412,535.2L87.412,535.2z"/>
	</g>
	<g>
		<path fill="#FFFFFF" d="M123.854,523.957c-4.936,0-7.424,3.539-7.424,6.49c0,1.8,0.7,3.398,2.101,4c0.237,0.1,0.5,0,0.52-0.263
			c0.048-0.188,0.162-0.646,0.212-0.832c0.07-0.265,0.043-0.354-0.148-0.578c-0.418-0.493-0.687-1.135-0.687-2.037
			c0-2.625,1.963-4.977,5.114-4.977c2.789,0,4.3,1.7,4.3,4c0,2.996-1.324,5.523-3.293,5.523c-1.087,0-1.9-0.898-1.64-2.002
			c0.312-1.314,0.917-2.735,0.917-3.688c0-0.851-0.457-1.56-1.401-1.56c-1.11,0-2.003,1.146-2.003,2.688
			c0,1,0.301,1.602,0.301,1.646s-1.138,4.812-1.336,5.7c-0.396,1.683-0.061,3.734-0.031,3.942c0.017,0.102,0.199,0.2,0.199,0.062
			c0.104-0.136,1.426-1.771,1.875-3.397c0.127-0.463,0.73-2.854,0.73-2.854c0.361,0.7,1.4,1.3,2.5,1.295
			c3.339,0,5.605-3.045,5.605-7.118c0.164-3.201-2.468-6.001-6.367-6.001"/>
	</g>
	<g enable-background="new    ">
		<path fill="#FFFFFF" d="M91.938,530.364v-2.493h-2.475v-1.041h2.475v-2.475h1.054v2.475h2.474v1.041h-2.474v2.493H91.938z"/>
	</g>
</g>
</svg>
