<?xml version="1.0" encoding="UTF-8" standalone="no"?>
<!-- Created with Inkscape (http://www.inkscape.org/) -->

<svg
   xmlns:dc="http://purl.org/dc/elements/1.1/"
   xmlns:cc="http://creativecommons.org/ns#"
   xmlns:rdf="http://www.w3.org/1999/02/22-rdf-syntax-ns#"
   xmlns:svg="http://www.w3.org/2000/svg"
   xmlns="http://www.w3.org/2000/svg"
   xmlns:sodipodi="http://sodipodi.sourceforge.net/DTD/sodipodi-0.dtd"
   xmlns:inkscape="http://www.inkscape.org/namespaces/inkscape"
   width="740"
   height="730"
   id="svg2"
   version="1.1"
   inkscape:version="0.48.4 r9939"
   sodipodi:docname="logo (copy).svg">
  <defs
     id="defs4">
    <inkscape:perspective
       sodipodi:type="inkscape:persp3d"
       inkscape:vp_x="40 : 517.60966 : 1"
       inkscape:vp_y="0 : 1000 : 0"
       inkscape:vp_z="744.09448 : 526.18109 : 1"
       inkscape:persp3d-origin="372.04724 : 350.78739 : 1"
       id="perspective2987" />
  </defs>
  <sodipodi:namedview
     id="base"
     pagecolor="#ffffff"
     bordercolor="#666666"
     borderopacity="1.0"
     inkscape:pageopacity="0.0"
     inkscape:pageshadow="2"
     inkscape:zoom="0.35"
     inkscape:cx="375"
     inkscape:cy="520"
     inkscape:document-units="px"
     inkscape:current-layer="layer1"
     showgrid="false"
     inkscape:object-paths="true"
     inkscape:snap-global="false"
     inkscape:window-width="1366"
     inkscape:window-height="744"
     inkscape:window-x="0"
     inkscape:window-y="24"
     inkscape:window-maximized="1" />
  <metadata
     id="metadata7">
    <rdf:RDF>
      <cc:Work
         rdf:about="">
        <dc:format>image/svg+xml</dc:format>
        <dc:type
           rdf:resource="http://purl.org/dc/dcmitype/StillImage" />
        <dc:title />
      </cc:Work>
    </rdf:RDF>
  </metadata>
  <g
     inkscape:label="Layer 1"
     inkscape:groupmode="layer"
     id="layer1">
    <g
       id="g2994"
       transform="translate(-17.142857,-114.28571)">
      <path
         transform="translate(-57.142857,14.285714)"
         sodipodi:open="true"
         sodipodi:end="6.2739143"
         sodipodi:start="0"
         d="m 731.42856,459.50504 c 0,166.47439 -134.95416,301.42855 -301.42856,301.42855 -166.4744,0 -301.42856,-134.95416 -301.42856,-301.42855 0,-166.4744 134.95416,-301.42856 301.42856,-301.42856 165.3841,0 299.88235,133.25705 301.4156,298.63405"
         sodipodi:ry="301.42856"
         sodipodi:rx="301.42856"
         sodipodi:cy="459.50504"
         sodipodi:cx="430"
         id="path3194"
         style="fill:#1a1a1a"
         sodipodi:type="arc" />
      <path
         inkscape:connector-curvature="0"
         d="m 70.432255,555.35155 c 11.895019,-5.7363 35.334125,-17.30517 -15.909636,9.94526 -3.86527,2.05547 7.463603,-4.58007 11.127414,-6.97627 12.732535,-8.32732 14.458593,-9.87515 27.087838,-19.15821 24.916489,-19.74369 47.624349,-42.48911 65.134439,-69.15053 3.49852,-5.32697 6.57029,-10.92229 9.85544,-16.38343 19.48469,-34.29365 30.0778,-70.52881 37.96043,-108.88427 5.83194,-31.61585 7.35772,-63.76211 7.78757,-95.83798 -0.14876,-8.91028 0.4964,-18.04508 -1.3115,-26.85504 -0.29601,-1.44244 -0.53663,-2.98601 -1.37085,-4.19941 -0.29253,-0.42549 -2.00657,0.19136 -1.54834,-0.0466 11.39564,-5.91869 23.01892,-11.3884 34.52837,-17.08261 -1.52707,1.6896 -3.25519,3.21721 -4.58121,5.0688 -4.13835,5.77858 -8.97669,15.52344 -11.92777,21.5354 -9.25455,18.85349 -16.90079,38.17696 -24.42288,57.77211 -18.81059,50.54748 -33.73544,102.38154 -48.31553,154.26657 -10.32821,36.56303 -19.26185,73.54408 -22.60403,111.44635 0.0615,12.96047 -1.30345,31.05124 6.02401,42.66948 0.72396,1.1479 1.78726,2.04275 2.6809,3.06413 1.07102,0.61551 2.04281,1.45102 3.21307,1.84653 9.59383,3.24234 23.62362,-3.4304 31.97413,-7.30427 24.09258,-14.25944 -9.86996,5.95005 -17.97563,9.64145 -2.99754,1.3651 5.25584,-3.97951 7.7424,-6.13956 6.65476,-5.78093 12.09841,-12.38879 17.46042,-19.33055 7.67224,-10.94403 14.16889,-22.66385 20.54056,-34.39716 0.95516,-1.8041 1.91031,-3.60819 2.86546,-5.41229 0,0 37.98271,-17.09095 37.98271,-17.09095 l 0,0 c -0.94924,1.81732 -1.89847,3.63464 -2.8477,5.45196 -6.41474,11.97847 -13.12988,23.82099 -20.66157,35.13741 -6.37225,8.64383 -16.00434,21.1523 -25.03053,26.89732 -14.21431,9.04717 -28.86591,17.38955 -43.39329,25.92494 -2.89949,1.70356 -5.92019,3.19186 -8.88028,4.78779 -10.22483,4.1492 -24.3037,10.34351 -35.18877,4.45671 -1.41204,-0.76365 -2.54182,-1.96144 -3.81273,-2.94215 -1.01847,-1.36513 -2.22454,-2.6086 -3.05542,-4.09538 -7.323499,-13.10465 -5.598707,-31.05739 -5.470693,-45.33286 3.908316,-38.48557 13.450823,-75.95743 24.258723,-113.04105 14.91167,-51.79178 30.01059,-103.55082 47.91487,-154.40749 10.40233,-28.99087 21.04758,-58.14671 36.29091,-85.0194 13.45958,-7.06272 26.40112,-15.21586 40.37875,-21.18817 1.84573,-0.78864 3.35244,4.18944 3.93898,7.83129 1.48141,9.19802 0.75456,18.60441 0.60513,27.85409 -1.14554,32.47612 -2.75496,65.03502 -8.67762,97.05862 -7.6744,38.19989 -18.16,75.81094 -37.35021,110.04015 -3.24054,5.55549 -6.25919,11.2465 -9.72161,16.66649 -17.20693,26.93526 -39.69179,49.9673 -64.32493,70.15473 -28.82851,21.80862 -59.141143,42.05857 -92.192473,57.01449 0,0 33.222678,-26.2564 33.222678,-26.2564 z"
         id="path3254"
         style="fill:#ffffff" />
      <path
         inkscape:connector-curvature="0"
         d="m 260.73974,494.95857 c -6.61078,12.26411 -11.8035,25.12169 -15.45591,38.55211 -2.84556,11.65909 -4.24371,23.45481 -1.60226,35.23232 2.23505,6.97055 6.38933,11.59612 13.47184,13.34517 11.08835,1.87848 22.10847,0.76988 32.91018,-2.02862 2.30139,-0.91487 4.65699,-1.70368 6.90418,-2.74462 2.30114,-1.06593 8.92402,-4.82165 6.72037,-3.5665 -9.67397,5.5101 -19.1649,11.37565 -29.13363,16.33263 -2.20381,1.09585 3.92706,-2.98502 5.70777,-4.68407 4.97027,-4.74232 5.4424,-6.18386 9.17026,-11.89168 7.12505,-14.39332 9.12931,-26.42045 6.61103,-42.20128 -3.62366,-13.49478 -10.99067,-25.35318 -20.08896,-35.80158 -6.75098,-7.59837 -15.20756,-9.69351 -24.88941,-10.65574 -9.10883,-0.0109 -17.81719,0.95065 -25.93533,5.20105 -14.19511,7.12151 -10.24135,5.21208 29.95933,-17.31045 0.82985,-0.46492 -1.59057,1.04808 -2.33613,1.6388 -1.92826,1.52778 -3.5966,3.30644 -5.13753,5.20869 -1.70467,2.62109 -2.09926,3.76895 0.0197,6.05782 0,0 -36.24015,21.82234 -36.24015,21.82234 l 0,0 c -2.85336,-3.48923 -4.56354,-6.33982 -2.56227,-10.7856 1.32786,-2.68846 2.67708,-4.25345 4.7689,-6.36879 12.19084,-12.32786 28.80284,-19.21506 44.5119,-26.39605 8.69827,-3.21041 17.9164,-3.87423 27.14404,-3.26836 10.94845,1.6262 18.94923,4.75277 26.36809,13.38727 9.32414,11.18033 16.885,23.76807 20.979,37.83328 0.47886,2.50959 1.14406,4.99071 1.43659,7.52877 1.47988,12.83997 -1.93345,25.6156 -6.81026,37.36909 -1.28457,2.30055 -2.39661,4.70632 -3.85372,6.90165 -1.86218,2.8056 -7.30941,9.51553 -10.26838,11.38209 -18.01124,11.36177 -35.62034,23.73824 -55.99489,30.10431 -11.46452,2.3032 -23.39953,3.56559 -34.89018,0.63333 -7.86148,-3.20647 -12.83809,-9.04273 -15.3824,-17.21348 -2.90712,-12.42757 -1.92259,-24.82301 1.04168,-37.20397 3.45036,-13.5013 8.49023,-26.35903 14.35728,-38.99163 0,0 38.49931,-17.4183 38.49931,-17.4183 z"
         id="path3256"
         style="fill:#ffffff" />
      <path
         inkscape:connector-curvature="0"
         d="m 356.74994,466.84808 c 11.33186,3.92002 21.14465,10.8705 30.29804,18.43953 9.11341,8.19205 12.16564,19.14448 13.76213,30.837 0.85613,11.21964 -1.46973,22.28216 -3.04111,33.32976 -0.56108,6.08753 -0.50378,10.48049 5.94986,12.36569 12.42035,2.35535 24.54854,0.59758 36.62882,-2.52968 2.93092,-1.1736 5.94653,-2.15458 8.79277,-3.5208 2.95264,-1.41728 11.45088,-6.3636 8.56665,-4.81182 -8.92843,4.80367 -17.3719,10.59633 -26.70022,14.56804 -3.00938,1.2813 5.10529,-4.10429 7.45881,-6.37564 6.51432,-6.28686 6.73327,-7.46146 11.71916,-14.89886 9.70968,-17.37942 8.83316,-36.37594 5.47746,-55.30877 -2.72601,-12.73898 -7.41735,-25.01594 -15.71872,-35.14808 -17.09911,-15.65398 -34.42758,7.78129 26.15598,-27.91756 8.16923,5.46572 17.60025,8.22676 26.99959,10.73182 9.20015,2.19196 18.62519,3.01674 28.05209,3.34539 5.80176,0.16008 11.47879,0.71137 16.91705,-1.56677 0,0 -33.49533,25.77165 -33.49533,25.77165 l 0,0 c -5.84551,0.94797 -11.73481,0.64811 -17.63467,0.38242 -9.51977,-0.65552 -19.00145,-1.90185 -28.2496,-4.32447 -9.82214,-2.81624 -19.57577,-5.9695 -28.25311,-11.52113 26.56848,-20.07282 27.33064,-34.97348 45.52425,-16.37025 8.25269,11.04479 13.15792,23.87062 15.92238,37.35018 3.52415,19.67898 4.93618,39.55317 -4.20683,58.06085 -1.67159,2.80972 -3.12242,5.76314 -5.01478,8.42918 -13.80691,19.45177 -36.93478,28.79568 -56.84423,40.41866 -2.87257,1.67699 -5.87309,3.14497 -8.93875,4.43559 -2.99342,1.26021 -6.13504,2.13452 -9.20256,3.20177 -12.82634,2.83036 -26.30151,4.80228 -39.17357,1.0305 -6.79582,-3.72531 -9.37034,-9.59383 -8.32459,-17.33504 1.65162,-10.72819 4.01684,-21.44067 3.65295,-32.35499 -1.26485,-10.69552 -3.62815,-20.73395 -12.06331,-28.18398 -8.97201,-7.36231 -18.69915,-13.88644 -30.12962,-16.70636 0,0 35.11301,-23.82383 35.11301,-23.82383 z"
         id="path3258"
         style="fill:#ffffff" />
      <path
         inkscape:connector-curvature="0"
         d="m 536.50067,542.17976 c 14.13822,-0.84083 28.26818,-1.45775 42.39412,-2.51952 10.37431,-1.29297 21.10991,-2.5124 30.89644,-6.4726 1.99017,-0.80533 3.84261,-1.91615 5.76392,-2.87422 -10.22659,5.81417 -20.45318,11.62835 -30.67977,17.44253 7.89151,-5.27061 14.62914,-12.19457 20.09888,-19.92359 3.58815,-5.96292 4.58847,-8.88228 1.43861,-15.1096 -3.71786,-6.38606 -11.35301,-7.95031 -18.06795,-9.30534 -12.27194,-1.99718 -24.6732,-1.68121 -37.0222,-0.87107 -6.57659,0.67431 -13.10567,1.8789 -19.35644,4.07522 -13.28371,4.66747 -39.98445,21.71333 21.6102,-13.42047 -6.81833,3.82165 -11.93678,9.42063 -16.01365,15.98055 -3.37044,6.90153 -5.53802,14.29775 -6.14936,21.9484 -0.51828,8.85348 3.1205,16.80491 6.92901,24.54858 4.45186,8.83325 10.38408,16.69822 16.19686,24.64384 5.18278,7.71534 12.03117,13.95853 18.79155,20.24009 5.59578,4.59261 11.42371,9.05069 18.27351,11.53981 6.93298,2.12081 13.95674,3.6522 21.15927,4.46405 6.47594,0.82732 12.8064,0.56492 19.21533,-0.45997 6.19398,-1.88605 12.41994,-3.54967 18.29239,-6.3136 -34.49508,19.58468 -44.49418,26.31104 -31.53078,17.68736 0,0 39.1869,-15.96018 39.1869,-15.96018 l 0,0 c -11.78756,13.43271 -1.09205,1.72934 -40.80875,24.43177 -6.15676,2.28454 -12.44763,4.30936 -18.93631,5.40507 -6.62769,0.72504 -13.27087,0.49158 -19.87379,-0.45431 -7.39324,-1.15172 -14.7076,-2.84569 -21.76102,-5.37195 -6.99846,-3.20875 -13.20932,-7.7829 -18.92939,-12.92008 -6.89729,-6.49994 -13.82989,-13.01126 -19.1374,-20.93693 -5.98695,-8.11185 -11.86796,-16.30253 -16.52251,-25.28118 -4.19231,-8.27665 -8.24799,-16.8375 -8.13993,-26.3331 0.1633,-8.19039 2.32735,-16.00437 5.30269,-23.61282 3.38819,-7.35222 8.63603,-13.63058 15.35783,-18.20265 26.62013,-15.28127 41.54316,-28.26707 70.26107,-30.27942 12.69094,-0.66912 25.5108,-0.82016 38.04993,1.58496 7.92729,1.99219 16.1111,4.66159 20.39154,12.20801 3.59055,7.04968 4.22939,11.93183 0.33452,19.16185 -5.09145,8.46887 -12.20552,15.51914 -19.71326,21.87948 -35.52916,20.31559 -42.12113,28.37225 -77.98988,31.28123 -14.41787,1.10065 -28.91339,1.5027 -43.24312,3.4954 0,0 33.93094,-25.3956 33.93094,-25.3956 z"
         id="path3260"
         style="fill:#ffffff" />
      <path
         inkscape:connector-curvature="0"
         d="m 76.679287,707.40205 c 15.993437,-4.01371 31.183213,-10.52118 46.161703,-17.30091 20.4549,-10.42109 40.8353,-20.86059 62.10572,-29.5341 21.41273,-8.68484 43.68023,-14.24689 66.50762,-17.4539 23.29626,-2.54021 46.78503,-3.04434 70.19402,-2.38995 25.39791,0.35675 50.54168,4.01324 75.43651,8.78289 20.63043,4.08903 40.79409,10.09736 60.82886,16.4192 18.49269,6.24465 37.142,11.96207 55.93258,17.23651 19.90588,5.60715 40.50404,7.23139 61.06198,8.18977 19.19382,1.32088 38.17791,-1.20313 56.58522,-6.53193 2.8006,-0.98135 5.63576,-1.86916 8.40182,-2.94405 5.12826,-1.99284 11.38335,-4.89319 16.21703,-7.50369 2.63376,-1.4224 10.36561,-5.99198 7.754,-4.52931 -28.15186,15.76673 -36.59562,21.71188 -19.86147,10.47344 13.98745,-9.23709 26.61474,-20.16124 38.43917,-31.98791 7.87117,-8.4478 15.55814,-17.07042 23.62649,-25.3315 4.84943,-5.10505 2.47195,-2.54394 7.13502,-7.68093 0,0 38.56787,-16.21205 38.56787,-16.21205 l 0,0 c -4.67195,5.2288 -2.31006,2.60121 -7.08641,7.88213 -8.27471,8.19243 -16.10314,16.82118 -23.911,25.45671 -11.93008,12.01225 -24.41184,23.42569 -38.53948,32.85625 -20.57491,14.41055 -7.27308,5.39144 -50.32755,30.37115 -10.37824,6.02134 -21.41597,10.86214 -32.96613,14.14551 -18.72317,4.76634 -37.8535,6.88948 -57.18842,5.36989 -20.74895,-1.12208 -41.49128,-3.10282 -61.52484,-8.97083 -18.88727,-5.24282 -37.64425,-10.89972 -56.20153,-17.22177 -19.79752,-6.27716 -39.71582,-12.27973 -60.11056,-16.32941 -24.77299,-4.68295 -49.77767,-8.08165 -75.04315,-8.23609 -23.33106,-0.35294 -46.742,0.14423 -69.92119,3.03911 -22.63066,3.54055 -44.70128,9.42554 -65.89443,18.23989 -21.19961,8.92567 -41.51648,19.58574 -62.150488,29.71777 -15.549058,6.9038 -31.348869,13.3299 -47.833609,17.67417 0,0 33.604644,-25.69606 33.604644,-25.69606 z"
         id="path3262"
         style="fill:#ffffff" />
      <path
         inkscape:connector-curvature="0"
         d="m 283.46425,301.22701 c 7.94834,-1.04311 15.93769,-1.69138 23.94126,-2.10297 6.31062,-0.28688 12.62868,-0.31159 18.94452,-0.32464 0,0 -13.68081,9.94476 -13.68081,9.94476 l 0,0 c -6.28239,0.0175 -12.56708,0.0518 -18.84351,0.3562 -8.00504,0.43491 -16.00272,1.08478 -23.93384,2.28489 0,0 13.57238,-10.15824 13.57238,-10.15824 z"
         id="path3015"
         style="fill:#ffffff" />
      <path
         inkscape:connector-curvature="0"
         d="m 336.12483,265.19159 c -0.10517,7.98652 -0.0643,15.97417 -0.0463,23.96114 0.49147,6.60825 -1.44343,12.84045 -3.23717,19.09194 -2.07247,4.77242 -3.77395,9.56488 -4.62108,14.70473 -0.3888,4.55768 -1.82442,9.76026 1.46841,13.49741 4.08758,2.8114 8.50455,1.25289 12.72221,-0.33136 6.42876,-4.21419 -0.47059,0.36162 -10.64352,5.96688 -0.62793,0.34598 1.16977,-0.8296 1.74177,-1.26182 1.69631,-1.28177 3.23413,-2.71376 4.80064,-4.14699 3.14406,-2.678 5.56799,-5.89986 7.89346,-9.27681 2.3467,-3.3379 5.1021,-6.33989 7.86101,-9.3332 2.75195,-3.34581 4.79194,-6.86048 5.90836,-11.04434 1.04632,-5.25527 1.04499,-10.64213 1.10141,-15.97879 0.15868,-4.65802 -0.56281,-9.46513 0.99845,-13.95435 5.26493,-2.23018 10.31591,-5.055 15.79481,-6.69054 0.60468,-0.18051 0.38837,1.20343 0.51647,1.82135 0.66777,3.22113 0.57376,6.6301 0.63165,9.90002 0.0431,5.74645 -0.002,11.49314 -0.022,17.23962 -0.0196,5.74005 -0.0239,11.48013 -0.0267,17.2202 0.18767,5.55912 -0.39061,11.1694 0.29895,16.6972 1.38457,4.63546 6.0409,4.98668 10.194,5.42324 5.17703,0.0941 10.69272,1.23678 15.44828,-1.21808 -13.53138,7.42317 -16.10045,10.90264 -11.70609,5.59724 0,0 15.5536,-6.80897 15.5536,-6.80897 l 0,0 c -4.02949,7.49851 -0.41996,1.58276 -17.18228,11.7044 -5.15751,1.56284 -10.63822,0.83097 -15.94423,0.51004 -4.95896,-0.73156 -9.72528,-1.97245 -11.35457,-7.31255 -0.81689,-5.58881 -0.18949,-11.27909 -0.38198,-16.91267 0.003,-5.74195 0.007,-11.4839 0.0263,-17.22581 0.0203,-5.73422 0.0639,-11.46861 0.0261,-17.20283 -0.0405,-2.52049 -0.054,-5.04854 -0.28295,-7.56134 -0.0592,-0.65016 -0.12919,-1.30022 -0.2356,-1.94435 -0.0772,-0.46741 -0.70095,-1.11181 -0.3146,-1.386 4.62129,-3.27961 9.72136,-5.82616 14.58203,-8.73924 -3.22879,2.88076 -0.90755,9.45276 -1.5368,13.17503 -0.0378,5.44225 -0.0289,10.91907 -0.89884,16.30657 -0.95989,4.48025 -2.7807,8.14614 -5.54657,11.78064 -2.57936,3.10703 -5.5582,5.84975 -7.95766,9.11691 -2.20889,3.55821 -4.64913,6.84253 -7.71572,9.70256 -7.65601,6.435 -14.9176,13.09927 -24.99897,16.25545 -4.82513,1.55929 -9.76531,2.19953 -13.914,-1.34723 -3.4635,-4.37039 -2.69772,-9.50892 -2.11064,-14.77646 0.72977,-5.22413 2.11927,-10.20169 4.55842,-14.91149 1.72925,-6.13785 3.96486,-12.19219 3.49157,-18.69608 0.0179,-7.97124 0.0592,-15.94319 -0.0463,-23.91397 0,0 15.1068,-7.6973 15.1068,-7.6973 z"
         id="path3017"
         style="fill:#ffffff" />
      <path
         inkscape:connector-curvature="0"
         d="m 434.10989,327.35908 c 2.17764,4.63416 3.6076,9.54925 5.51284,14.29014 0,0 -14.71033,8.21452 -14.71033,8.21452 l 0,0 c -1.87029,-4.69877 -3.24648,-9.58651 -5.54314,-14.11158 0,0 14.74063,-8.39308 14.74063,-8.39308 z"
         id="path3019"
         style="fill:#ffffff" />
      <path
         inkscape:connector-curvature="0"
         d="m 456.96703,264.50194 c 3.03957,7.33136 6.28069,14.58767 8.32909,22.27004 1.47073,6.94207 3.26459,13.7889 4.26763,20.82158 0.7305,5.83463 0.80454,11.72095 0.85648,17.59234 0.27944,5.74796 -0.43141,11.45811 -1.95534,16.99637 -4.32721,13.46012 -2.89199,9.70589 -20.13998,17.48269 -1.38325,-4.7903 1.58316,-10.24642 3.67909,-14.51831 2.80528,-5.69048 5.40675,-11.48369 8.03535,-17.25887 2.14105,-5.78598 4.79282,-11.36589 6.93297,-17.14917 1.95067,-5.49796 3.22679,-11.18801 4.87064,-16.77029 0.89162,-2.1758 2.15763,-4.13046 4.28017,-5.29163 9.13715,-4.99864 13.18466,-12.55504 19.77058,-6.77538 3.63432,3.98101 4.63565,9.24848 5.36364,14.40801 0.62325,5.76098 0.60612,11.56483 0.61883,17.35184 0.0124,4.83699 -2.42697,8.94662 -3.9648,13.37041 -1.45915,4.96612 -1.61078,10.17095 -1.76424,15.30729 -0.0731,8.30895 1.35559,5.22644 -15.18836,9.64976 -0.65343,0.1747 0.0147,-1.35269 0.0205,-2.02905 0.007,-0.77276 0.0112,-1.54554 0.0169,-2.31832 -0.0757,-5.58949 -0.0793,-11.11349 0.79122,-16.64205 1.11403,-4.8558 3.39922,-9.26213 5.38642,-13.78297 2.02393,-3.79993 3.73245,-7.74788 6.08995,-11.35996 2.35735,-3.42329 4.12059,-7.18798 7.08416,-10.14834 13.54279,-8.08833 16.98428,-14.73482 22.14117,-1.72415 1.72952,5.39433 1.95527,11.08781 2.14693,16.70337 0.54725,5.88839 -0.6988,11.6369 -1.59149,17.41665 -1.39241,4.89983 -2.77543,9.74198 -3.46431,14.79927 -0.34043,4.86735 3.44656,6.8051 7.44825,8.37338 2.98711,1.06443 5.94105,0.9493 8.83841,-0.23976 0.6409,-0.26302 2.51229,-1.15909 1.91425,-0.80939 -4.25298,2.48688 -8.5946,4.81896 -12.89189,7.22844 2.05099,-1.46912 3.81416,-3.28552 5.68191,-4.97269 0,0 15.68437,-6.37239 15.68437,-6.37239 l 0,0 c -1.9464,1.64024 -3.7248,3.40147 -5.53859,5.18559 -9.66445,5.57991 -16.88079,13.18406 -27.78335,9.38486 -4.56933,-2.05627 -8.65408,-4.73347 -8.54047,-10.27886 0.59463,-5.08707 1.71326,-10.02448 3.46644,-14.84698 0.84791,-5.69688 2.25726,-11.33775 1.72836,-17.14077 -0.15754,-5.42778 -0.3111,-10.93762 -1.9077,-16.17215 -0.69097,-1.77124 -1.33066,-3.71693 -2.83252,-5.00652 -0.45557,-0.39119 -2.30655,0.21373 -1.79831,-0.10607 4.28668,-2.69728 8.69262,-5.20021 13.03893,-7.80031 -3.42102,2.48462 -5.01449,6.2967 -7.2409,9.77891 -2.68571,3.34541 -4.00959,7.39438 -6.26684,11.01177 -1.79876,4.51914 -4.27656,8.72228 -5.59955,13.44707 -0.9351,5.44435 -1.04989,10.85482 -0.8704,16.37812 10e-4,0.76965 0.002,1.53931 0.004,2.30896 0.002,0.67203 0.5447,1.61347 0.007,2.01611 -17.29474,12.9417 -15.25449,14.46121 -15.07384,5.71171 0.12255,-5.26587 0.23893,-10.58697 1.51487,-15.72667 1.32471,-4.38525 3.91706,-8.25155 4.24242,-12.91233 -0.003,-5.71833 0.03,-11.45112 -0.52045,-17.14916 -0.6075,-4.69601 -1.33229,-9.67705 -4.78315,-13.21273 -5.22346,-3.19962 -13.47792,6.58117 10.45184,-8.42249 2.07324,-1.29989 -6.35144,3.11544 -4.78937,4.19309 -1.91607,5.49945 -2.845,11.35146 -4.87448,16.83566 -2.03726,5.86148 -4.84195,11.41063 -6.88689,17.27244 -2.57695,5.81827 -5.29584,11.57741 -7.99697,17.33672 -2.05228,3.83646 -3.83292,8.07142 -4.68771,12.32433 -27.55787,16.72656 -14.82118,11.52907 -12.14101,6.02034 1.11495,-2.29163 1.63517,-4.76712 2.5749,-7.12476 1.82102,-5.29396 2.38699,-10.95944 2.20042,-16.53843 -0.0373,-5.80822 -0.081,-11.63024 -0.73657,-17.40889 -0.92402,-6.98869 -2.68091,-13.78087 -4.11235,-20.67348 -1.9694,-7.57734 -5.09638,-14.76254 -8.27655,-21.90072 0,0 14.74062,-8.39308 14.74062,-8.39308 z"
         id="path3029"
         style="fill:#ffffff" />
      <path
         inkscape:connector-curvature="0"
         d="m 557.2451,320.32476 c 1.05307,-0.45241 2.13054,-0.8518 3.15922,-1.35725 1.12946,-0.55496 2.20502,-1.21348 3.30754,-1.82022 1.13009,-0.58196 4.48768,-2.38737 3.39028,-1.74589 -21.80412,12.74561 -10.62735,6.07498 -5.9224,2.2753 4.85322,-4.20597 8.11868,-9.33672 9.97739,-15.43043 0.97199,-4.59025 -0.5697,-7.67677 -3.97441,-10.60587 -3.82643,-1.95131 -7.78565,-3.68551 -11.98597,-4.67884 -6.61625,-1.27844 -18.52968,5.75222 6.96535,-6.63046 0.54392,-0.26418 -0.8482,0.87563 -1.16419,1.39118 -0.35415,0.57784 -0.55127,1.23831 -0.8269,1.85746 -1.23321,4.56851 -2.58611,9.06398 -3.31193,13.74787 -0.68086,5.43121 -0.7155,10.91462 -0.7646,16.3798 -0.0263,5.71492 -0.007,11.42993 0.002,17.14488 0.25089,4.78434 1.45849,8.05167 6.04906,9.78411 5.06454,1.23702 10.33413,1.12636 15.51347,1.14785 5.10595,-0.47834 9.44311,-2.86613 13.81492,-5.30566 -22.31285,13.81029 -9.62476,5.70127 -4.77509,-2.02924 2.27795,-4.63613 3.68332,-9.60433 5.61637,-14.37947 1.10293,-3.05946 0.60237,-1.51073 1.50076,-4.64647 0,0 15.29662,-7.29415 15.29662,-7.29415 l 0,0 c -0.82552,3.27074 -0.35402,1.65955 -1.41164,4.83442 -1.9643,4.82645 -3.5574,9.75406 -5.51306,14.58939 -5.22806,9.83218 -13.74469,14.36519 -23.90634,19.57043 -4.4625,2.45716 -9.13869,4.44987 -14.3183,4.59592 -5.34137,-0.0563 -10.8209,0.0267 -15.9469,-1.67987 -4.89579,-2.39196 -6.63877,-6.12448 -6.99268,-11.50447 -0.008,-5.71928 -0.0263,-11.4386 -0.0103,-17.15789 0.0357,-5.52817 0.0559,-11.07021 0.641,-16.57373 0.6389,-4.80601 2.00209,-9.36655 3.13246,-14.05389 2.88722,-9.63069 14.80097,-15.68631 24.37516,-13.40781 4.34961,1.19949 8.62693,2.96262 12.45501,5.34679 3.69131,3.44192 5.64119,7.09245 4.81616,12.29864 -1.68244,6.39406 -4.73723,11.81414 -9.60995,16.37841 -9.73497,8.31348 -21.3508,14.0191 -32.82386,19.55485 0,0 13.24618,-10.59569 13.24618,-10.59569 z"
         id="path3031"
         style="fill:#ffffff" />
    </g>
  </g>
</svg>
