<?xml version="1.0" encoding="UTF-8" standalone="no"?>
<!-- Created with Inkscape (http://www.inkscape.org/) -->

<svg
   xmlns:dc="http://purl.org/dc/elements/1.1/"
   xmlns:cc="http://creativecommons.org/ns#"
   xmlns:rdf="http://www.w3.org/1999/02/22-rdf-syntax-ns#"
   xmlns:svg="http://www.w3.org/2000/svg"
   xmlns="http://www.w3.org/2000/svg"
   xmlns:sodipodi="http://sodipodi.sourceforge.net/DTD/sodipodi-0.dtd"
   xmlns:inkscape="http://www.inkscape.org/namespaces/inkscape"
   width="250"
   height="200"
   id="svg2"
   version="1.1"
   inkscape:version="0.48.4 r9939"
   sodipodi:docname="logo.svg">
  <defs
     id="defs4">
    <inkscape:perspective
       sodipodi:type="inkscape:persp3d"
       inkscape:vp_x="40 : 517.60966 : 1"
       inkscape:vp_y="0 : 1000 : 0"
       inkscape:vp_z="744.09448 : 526.18109 : 1"
       inkscape:persp3d-origin="372.04724 : 350.78739 : 1"
       id="perspective2987" />
  </defs>
  <sodipodi:namedview
     id="base"
     pagecolor="#ffffff"
     bordercolor="#666666"
     borderopacity="1.0"
     inkscape:pageopacity="0.0"
     inkscape:pageshadow="2"
     inkscape:zoom="0.35"
     inkscape:cx="375"
     inkscape:cy="520"
     inkscape:document-units="px"
     inkscape:current-layer="layer1"
     showgrid="false"
     inkscape:object-paths="true"
     inkscape:snap-global="false"
     inkscape:window-width="1366"
     inkscape:window-height="744"
     inkscape:window-x="0"
     inkscape:window-y="24"
     inkscape:window-maximized="1" />
  <metadata
     id="metadata7">
    <rdf:RDF>
      <cc:Work
         rdf:about="">
        <dc:format>image/svg+xml</dc:format>
        <dc:type
           rdf:resource="http://purl.org/dc/dcmitype/StillImage" />
        <dc:title />
      </cc:Work>
    </rdf:RDF>
  </metadata>
  <g
     inkscape:label="Layer 1"
     inkscape:groupmode="layer"
     id="layer1">
    <g
       id="g3005"
       transform="matrix(0.35225223,0,0,0.26824599,-13.040437,-38.444282)">
      <path
         transform="translate(-57.142857,14.285714)"
         sodipodi:open="true"
         sodipodi:end="6.2739143"
         sodipodi:start="0"
         d="m 731.42856,459.50504 c 0,166.47439 -134.95416,301.42855 -301.42856,301.42855 -166.4744,0 -301.42856,-134.95416 -301.42856,-301.42855 0,-166.4744 134.95416,-301.42856 301.42856,-301.42856 165.3841,0 299.88235,133.25705 301.4156,298.63405"
         sodipodi:ry="301.42856"
         sodipodi:rx="301.42856"
         sodipodi:cy="459.50504"
         sodipodi:cx="430"
         id="path3194"
         style="fill:#1a1a1a"
         sodipodi:type="arc" />
      <path
         inkscape:connector-curvature="0"
         d="m 70.432255,555.35155 c 11.895019,-5.7363 35.334125,-17.30517 -15.909636,9.94526 -3.86527,2.05547 7.463603,-4.58007 11.127414,-6.97627 12.732535,-8.32732 14.458593,-9.87515 27.087838,-19.15821 24.916489,-19.74369 47.624349,-42.48911 65.134439,-69.15053 3.49852,-5.32697 6.57029,-10.92229 9.85544,-16.38343 19.48469,-34.29365 30.0778,-70.52881 37.96043,-108.88427 5.83194,-31.61585 7.35772,-63.76211 7.78757,-95.83798 -0.14876,-8.91028 0.4964,-18.04508 -1.3115,-26.85504 -0.29601,-1.44244 -0.53663,-2.98601 -1.37085,-4.19941 -0.29253,-0.42549 -2.00657,0.19136 -1.54834,-0.0466 11.39564,-5.91869 23.01892,-11.3884 34.52837,-17.08261 -1.52707,1.6896 -3.25519,3.21721 -4.58121,5.0688 -4.13835,5.77858 -8.97669,15.52344 -11.92777,21.5354 -9.25455,18.85349 -16.90079,38.17696 -24.42288,57.77211 -18.81059,50.54748 -33.73544,102.38154 -48.31553,154.26657 -10.32821,36.56303 -19.26185,73.54408 -22.60403,111.44635 0.0615,12.96047 -1.30345,31.05124 6.02401,42.66948 0.72396,1.1479 1.78726,2.04275 2.6809,3.06413 1.07102,0.61551 2.04281,1.45102 3.21307,1.84653 9.59383,3.24234 23.62362,-3.4304 31.97413,-7.30427 24.09258,-14.25944 -9.86996,5.95005 -17.97563,9.64145 -2.99754,1.3651 5.25584,-3.97951 7.7424,-6.13956 6.65476,-5.78093 12.09841,-12.38879 17.46042,-19.33055 7.67224,-10.94403 14.16889,-22.66385 20.54056,-34.39716 0.95516,-1.8041 1.91031,-3.60819 2.86546,-5.41229 0,0 37.98271,-17.09095 37.98271,-17.09095 l 0,0 c -0.94924,1.81732 -1.89847,3.63464 -2.8477,5.45196 -6.41474,11.97847 -13.12988,23.82099 -20.66157,35.13741 -6.37225,8.64383 -16.00434,21.1523 -25.03053,26.89732 -14.21431,9.04717 -28.86591,17.38955 -43.39329,25.92494 -2.89949,1.70356 -5.92019,3.19186 -8.88028,4.78779 -10.22483,4.1492 -24.3037,10.34351 -35.18877,4.45671 -1.41204,-0.76365 -2.54182,-1.96144 -3.81273,-2.94215 -1.01847,-1.36513 -2.22454,-2.6086 -3.05542,-4.09538 -7.323499,-13.10465 -5.598707,-31.05739 -5.470693,-45.33286 3.908316,-38.48557 13.450823,-75.95743 24.258723,-113.04105 14.91167,-51.79178 30.01059,-103.55082 47.91487,-154.40749 10.40233,-28.99087 21.04758,-58.14671 36.29091,-85.0194 13.45958,-7.06272 26.40112,-15.21586 40.37875,-21.18817 1.84573,-0.78864 3.35244,4.18944 3.93898,7.83129 1.48141,9.19802 0.75456,18.60441 0.60513,27.85409 -1.14554,32.47612 -2.75496,65.03502 -8.67762,97.05862 -7.6744,38.19989 -18.16,75.81094 -37.35021,110.04015 -3.24054,5.55549 -6.25919,11.2465 -9.72161,16.66649 -17.20693,26.93526 -39.69179,49.9673 -64.32493,70.15473 -28.82851,21.80862 -59.141143,42.05857 -92.192473,57.01449 0,0 33.222678,-26.2564 33.222678,-26.2564 z"
         id="path3254"
         style="fill:#ffffff" />
      <path
         inkscape:connector-curvature="0"
         d="m 260.73974,494.95857 c -6.61078,12.26411 -11.8035,25.12169 -15.45591,38.55211 -2.84556,11.65909 -4.24371,23.45481 -1.60226,35.23232 2.23505,6.97055 6.38933,11.59612 13.47184,13.34517 11.08835,1.87848 22.10847,0.76988 32.91018,-2.02862 2.30139,-0.91487 4.65699,-1.70368 6.90418,-2.74462 2.30114,-1.06593 8.92402,-4.82165 6.72037,-3.5665 -9.67397,5.5101 -19.1649,11.37565 -29.13363,16.33263 -2.20381,1.09585 3.92706,-2.98502 5.70777,-4.68407 4.97027,-4.74232 5.4424,-6.18386 9.17026,-11.89168 7.12505,-14.39332 9.12931,-26.42045 6.61103,-42.20128 -3.62366,-13.49478 -10.99067,-25.35318 -20.08896,-35.80158 -6.75098,-7.59837 -15.20756,-9.69351 -24.88941,-10.65574 -9.10883,-0.0109 -17.81719,0.95065 -25.93533,5.20105 -14.19511,7.12151 -10.24135,5.21208 29.95933,-17.31045 0.82985,-0.46492 -1.59057,1.04808 -2.33613,1.6388 -1.92826,1.52778 -3.5966,3.30644 -5.13753,5.20869 -1.70467,2.62109 -2.09926,3.76895 0.0197,6.05782 0,0 -36.24015,21.82234 -36.24015,21.82234 l 0,0 c -2.85336,-3.48923 -4.56354,-6.33982 -2.56227,-10.7856 1.32786,-2.68846 2.67708,-4.25345 4.7689,-6.36879 12.19084,-12.32786 28.80284,-19.21506 44.5119,-26.39605 8.69827,-3.21041 17.9164,-3.87423 27.14404,-3.26836 10.94845,1.6262 18.94923,4.75277 26.36809,13.38727 9.32414,11.18033 16.885,23.76807 20.979,37.83328 0.47886,2.50959 1.14406,4.99071 1.43659,7.52877 1.47988,12.83997 -1.93345,25.6156 -6.81026,37.36909 -1.28457,2.30055 -2.39661,4.70632 -3.85372,6.90165 -1.86218,2.8056 -7.30941,9.51553 -10.26838,11.38209 -18.01124,11.36177 -35.62034,23.73824 -55.99489,30.10431 -11.46452,2.3032 -23.39953,3.56559 -34.89018,0.63333 -7.86148,-3.20647 -12.83809,-9.04273 -15.3824,-17.21348 -2.90712,-12.42757 -1.92259,-24.82301 1.04168,-37.20397 3.45036,-13.5013 8.49023,-26.35903 14.35728,-38.99163 0,0 38.49931,-17.4183 38.49931,-17.4183 z"
         id="path3256"
         style="fill:#ffffff" />
      <path
         inkscape:connector-curvature="0"
         d="m 356.74994,466.84808 c 11.33186,3.92002 21.14465,10.8705 30.29804,18.43953 9.11341,8.19205 12.16564,19.14448 13.76213,30.837 0.85613,11.21964 -1.46973,22.28216 -3.04111,33.32976 -0.56108,6.08753 -0.50378,10.48049 5.94986,12.36569 12.42035,2.35535 24.54854,0.59758 36.62882,-2.52968 2.93092,-1.1736 5.94653,-2.15458 8.79277,-3.5208 2.95264,-1.41728 11.45088,-6.3636 8.56665,-4.81182 -8.92843,4.80367 -17.3719,10.59633 -26.70022,14.56804 -3.00938,1.2813 5.10529,-4.10429 7.45881,-6.37564 6.51432,-6.28686 6.73327,-7.46146 11.71916,-14.89886 9.70968,-17.37942 8.83316,-36.37594 5.47746,-55.30877 -2.72601,-12.73898 -7.41735,-25.01594 -15.71872,-35.14808 -17.09911,-15.65398 -34.42758,7.78129 26.15598,-27.91756 8.16923,5.46572 17.60025,8.22676 26.99959,10.73182 9.20015,2.19196 18.62519,3.01674 28.05209,3.34539 5.80176,0.16008 11.47879,0.71137 16.91705,-1.56677 0,0 -33.49533,25.77165 -33.49533,25.77165 l 0,0 c -5.84551,0.94797 -11.73481,0.64811 -17.63467,0.38242 -9.51977,-0.65552 -19.00145,-1.90185 -28.2496,-4.32447 -9.82214,-2.81624 -19.57577,-5.9695 -28.25311,-11.52113 26.56848,-20.07282 27.33064,-34.97348 45.52425,-16.37025 8.25269,11.04479 13.15792,23.87062 15.92238,37.35018 3.52415,19.67898 4.93618,39.55317 -4.20683,58.06085 -1.67159,2.80972 -3.12242,5.76314 -5.01478,8.42918 -13.80691,19.45177 -36.93478,28.79568 -56.84423,40.41866 -2.87257,1.67699 -5.87309,3.14497 -8.93875,4.43559 -2.99342,1.26021 -6.13504,2.13452 -9.20256,3.20177 -12.82634,2.83036 -26.30151,4.80228 -39.17357,1.0305 -6.79582,-3.72531 -9.37034,-9.59383 -8.32459,-17.33504 1.65162,-10.72819 4.01684,-21.44067 3.65295,-32.35499 -1.26485,-10.69552 -3.62815,-20.73395 -12.06331,-28.18398 -8.97201,-7.36231 -18.69915,-13.88644 -30.12962,-16.70636 0,0 35.11301,-23.82383 35.11301,-23.82383 z"
         id="path3258"
         style="fill:#ffffff" />
      <path
         inkscape:connector-curvature="0"
         d="m 536.50067,542.17976 c 14.13822,-0.84083 28.26818,-1.45775 42.39412,-2.51952 10.37431,-1.29297 21.10991,-2.5124 30.89644,-6.4726 1.99017,-0.80533 3.84261,-1.91615 5.76392,-2.87422 -10.22659,5.81417 -20.45318,11.62835 -30.67977,17.44253 7.89151,-5.27061 14.62914,-12.19457 20.09888,-19.92359 3.58815,-5.96292 4.58847,-8.88228 1.43861,-15.1096 -3.71786,-6.38606 -11.35301,-7.95031 -18.06795,-9.30534 -12.27194,-1.99718 -24.6732,-1.68121 -37.0222,-0.87107 -6.57659,0.67431 -13.10567,1.8789 -19.35644,4.07522 -13.28371,4.66747 -39.98445,21.71333 21.6102,-13.42047 -6.81833,3.82165 -11.93678,9.42063 -16.01365,15.98055 -3.37044,6.90153 -5.53802,14.29775 -6.14936,21.9484 -0.51828,8.85348 3.1205,16.80491 6.92901,24.54858 4.45186,8.83325 10.38408,16.69822 16.19686,24.64384 5.18278,7.71534 12.03117,13.95853 18.79155,20.24009 5.59578,4.59261 11.42371,9.05069 18.27351,11.53981 6.93298,2.12081 13.95674,3.6522 21.15927,4.46405 6.47594,0.82732 12.8064,0.56492 19.21533,-0.45997 6.19398,-1.88605 12.41994,-3.54967 18.29239,-6.3136 -34.49508,19.58468 -44.49418,26.31104 -31.53078,17.68736 0,0 39.1869,-15.96018 39.1869,-15.96018 l 0,0 c -11.78756,13.43271 -1.09205,1.72934 -40.80875,24.43177 -6.15676,2.28454 -12.44763,4.30936 -18.93631,5.40507 -6.62769,0.72504 -13.27087,0.49158 -19.87379,-0.45431 -7.39324,-1.15172 -14.7076,-2.84569 -21.76102,-5.37195 -6.99846,-3.20875 -13.20932,-7.7829 -18.92939,-12.92008 -6.89729,-6.49994 -13.82989,-13.01126 -19.1374,-20.93693 -5.98695,-8.11185 -11.86796,-16.30253 -16.52251,-25.28118 -4.19231,-8.27665 -8.24799,-16.8375 -8.13993,-26.3331 0.1633,-8.19039 2.32735,-16.00437 5.30269,-23.61282 3.38819,-7.35222 8.63603,-13.63058 15.35783,-18.20265 26.62013,-15.28127 41.54316,-28.26707 70.26107,-30.27942 12.69094,-0.66912 25.5108,-0.82016 38.04993,1.58496 7.92729,1.99219 16.1111,4.66159 20.39154,12.20801 3.59055,7.04968 4.22939,11.93183 0.33452,19.16185 -5.09145,8.46887 -12.20552,15.51914 -19.71326,21.87948 -35.52916,20.31559 -42.12113,28.37225 -77.98988,31.28123 -14.41787,1.10065 -28.91339,1.5027 -43.24312,3.4954 0,0 33.93094,-25.3956 33.93094,-25.3956 z"
         id="path3260"
         style="fill:#ffffff" />
      <path
         inkscape:connector-curvature="0"
         d="m 76.679287,707.40205 c 15.993437,-4.01371 31.183213,-10.52118 46.161703,-17.30091 20.4549,-10.42109 40.8353,-20.86059 62.10572,-29.5341 21.41273,-8.68484 43.68023,-14.24689 66.50762,-17.4539 23.29626,-2.54021 46.78503,-3.04434 70.19402,-2.38995 25.39791,0.35675 50.54168,4.01324 75.43651,8.78289 20.63043,4.08903 40.79409,10.09736 60.82886,16.4192 18.49269,6.24465 37.142,11.96207 55.93258,17.23651 19.90588,5.60715 40.50404,7.23139 61.06198,8.18977 19.19382,1.32088 38.17791,-1.20313 56.58522,-6.53193 2.8006,-0.98135 5.63576,-1.86916 8.40182,-2.94405 5.12826,-1.99284 11.38335,-4.89319 16.21703,-7.50369 2.63376,-1.4224 10.36561,-5.99198 7.754,-4.52931 -28.15186,15.76673 -36.59562,21.71188 -19.86147,10.47344 13.98745,-9.23709 26.61474,-20.16124 38.43917,-31.98791 7.87117,-8.4478 15.55814,-17.07042 23.62649,-25.3315 4.84943,-5.10505 2.47195,-2.54394 7.13502,-7.68093 0,0 38.56787,-16.21205 38.56787,-16.21205 l 0,0 c -4.67195,5.2288 -2.31006,2.60121 -7.08641,7.88213 -8.27471,8.19243 -16.10314,16.82118 -23.911,25.45671 -11.93008,12.01225 -24.41184,23.42569 -38.53948,32.85625 -20.57491,14.41055 -7.27308,5.39144 -50.32755,30.37115 -10.37824,6.02134 -21.41597,10.86214 -32.96613,14.14551 -18.72317,4.76634 -37.8535,6.88948 -57.18842,5.36989 -20.74895,-1.12208 -41.49128,-3.10282 -61.52484,-8.97083 -18.88727,-5.24282 -37.64425,-10.89972 -56.20153,-17.22177 -19.79752,-6.27716 -39.71582,-12.27973 -60.11056,-16.32941 -24.77299,-4.68295 -49.77767,-8.08165 -75.04315,-8.23609 -23.33106,-0.35294 -46.742,0.14423 -69.92119,3.03911 -22.63066,3.54055 -44.70128,9.42554 -65.89443,18.23989 -21.19961,8.92567 -41.51648,19.58574 -62.150488,29.71777 -15.549058,6.9038 -31.348869,13.3299 -47.833609,17.67417 0,0 33.604644,-25.69606 33.604644,-25.69606 z"
         id="path3262"
         style="fill:#ffffff" />
    </g>
  </g>
</svg>
